<svg width="733" height="486" viewBox="0 0 733 486" fill="none" xmlns="http://www.w3.org/2000/svg">
<path d="M0.0359844 252.794C0.0359844 250.82 0.0359844 248.845 0.0359844 246.87C-0.358971 241.472 2.53737 237.786 6.75022 234.758C7.80343 233.968 7.93508 232.915 8.19839 231.73C9.5149 225.543 10.3048 219.092 15.3076 214.484C16.0975 213.694 16.2291 212.772 16.4924 211.851C17.019 208.823 19.2571 207.901 21.4952 210.008C22.8117 211.193 23.9966 211.719 25.7081 211.456C26.7613 211.193 27.6828 211.851 28.8677 212.377C28.8677 210.139 27.4195 209.349 26.103 208.559C22.6801 206.321 21.7585 205.005 23.2067 201.187C24.9181 196.711 23.7333 192.498 22.5484 188.285C22.4168 187.89 22.2851 187.495 22.0218 187.232C19.5204 184.994 19.9154 182.887 21.6269 180.254C24.7865 175.647 28.2094 171.302 31.3691 166.826C36.1085 160.112 40.9796 153.529 46.1141 147.341C49.0104 143.787 52.565 140.496 56.3829 137.599C58.8843 135.756 60.9907 133.386 62.5705 130.622C63.2288 129.437 64.1503 128.779 65.3352 128.252C67.5733 127.33 69.8114 126.804 72.1811 126.935C74.5508 127.067 75.8673 125.882 76.6572 123.776C78.1054 119.826 79.2903 115.877 77.3155 111.664C76.5256 109.952 75.3407 108.373 74.2875 106.924C73.1026 105.345 72.7077 103.765 73.4976 102.053C74.4192 100.342 75.8673 99.2886 78.1054 99.5519C74.4192 97.5771 73.7609 93.3643 70.8646 90.8629C71.2595 88.3615 68.8898 86.7817 68.7581 84.5436C68.6265 82.4372 67.4416 80.989 65.9935 79.8042C64.8086 78.8826 63.887 77.6977 63.6237 76.1179C63.4921 75.328 62.9655 74.8014 62.3072 74.4064C60.0691 72.9583 59.2792 71.3784 60.3324 69.0087C61.649 66.1124 61.1223 63.4794 59.9375 60.8463C59.5425 59.7931 59.2792 58.8715 59.8058 57.8183C60.3324 56.5018 60.2008 55.0536 59.8058 53.7371C59.5425 52.5523 58.226 51.499 59.2792 50.3142C60.3324 49.1293 61.649 48.3394 63.2288 47.8128C66.915 46.3646 70.0747 48.2078 73.366 49.3926C73.6293 49.5243 73.8926 49.7876 74.1559 50.0509C75.604 51.894 76.2623 52.1573 77.7105 50.3142C79.8169 47.5495 82.5816 45.9697 85.4779 44.3899C86.6628 43.7316 87.1894 42.81 86.9261 41.4935C86.3995 38.7288 88.1109 36.7541 89.2958 34.6476C89.9541 33.4628 91.2706 33.1995 92.5871 33.1995C95.2201 33.0678 97.7215 32.8045 100.223 32.0146C100.618 31.8829 101.013 31.7513 101.408 31.7513C105.752 33.0678 109.965 30.5664 114.441 31.3563C115.626 31.6196 116.548 30.5664 117.601 30.0398C120.366 28.46 123.262 27.2751 126.553 27.5384C127.343 27.5384 128.133 27.8017 128.923 28.1967C131.556 29.9082 134.321 30.9614 137.612 29.5132C139.323 28.855 141.167 30.0398 143.01 30.3031C144.326 30.4348 145.379 30.6981 146.564 29.3816C147.881 27.9334 149.724 28.46 151.04 29.5132C152.225 30.3031 153.41 30.9614 154.727 30.3031C157.491 28.9866 159.861 30.1715 161.836 31.6196C165.127 34.121 168.813 34.2527 172.631 33.3311C173.816 33.0678 174.343 33.3311 174.606 34.516C174.869 35.8325 175.528 36.7541 176.581 37.544C177.371 38.0706 178.029 38.0706 178.819 37.6756C182.11 35.8325 185.928 36.3591 188.561 39.1238C191.063 41.6252 193.564 41.8885 196.724 40.7036C199.752 39.6504 202.911 40.177 206.071 40.4403C207.256 40.572 207.387 41.6252 207.387 42.5467C207.519 44.7848 206.992 47.0229 209.494 48.4711C210.284 48.9977 209.889 49.9192 209.757 50.8408C212.785 50.1825 215.681 49.6559 218.446 49.261C221.474 48.866 224.897 50.0509 227.662 51.894C228.847 52.6839 228.452 54.2637 227.925 55.5802C227.662 56.3702 226.74 57.0284 227.003 58.3449C228.452 56.8968 229.505 55.4486 229.242 53.3422C228.847 50.3142 231.085 48.6027 233.718 49.9192C235.429 50.8408 237.536 51.1041 238.852 52.6839C239.379 53.3422 239.905 52.8156 240.432 52.6839C241.485 52.1573 242.275 51.3674 242.933 50.3142C243.46 49.5243 243.986 48.7344 244.776 48.0761C248.199 45.1798 248.989 45.4431 250.306 49.6559C250.701 51.1041 251.886 52.1573 252.807 53.3422C253.334 54.1321 253.992 53.6055 254.519 53.2105C256.362 51.499 258.205 52.1573 260.443 52.4206C264.393 52.9472 265.709 55.1853 265.972 58.6082C265.972 59.0032 266.104 59.3981 266.631 59.6614C267.552 59.3981 267.684 58.4766 267.947 57.6867C269.659 53.8688 272.555 51.894 276.768 52.1573C277.953 52.1573 278.611 51.7623 279.269 50.8408C279.927 50.0509 280.454 49.261 281.376 48.7344C283.614 47.2862 285.588 47.8128 286.642 50.1825C287.168 51.499 287.826 52.8156 289.011 53.6055C290.196 54.527 290.196 55.8436 290.065 57.0284C289.67 59.7931 291.908 61.3729 292.698 63.611C293.093 64.6642 294.146 63.4793 294.936 63.611C296.91 64.006 297.7 62.9527 298.095 61.2413C298.49 59.9248 299.149 59.2665 300.86 59.1348C302.571 59.0032 304.02 57.2917 305.731 56.6335C308.496 55.5802 309.286 55.8436 309.812 58.8715C310.076 60.8463 311.129 60.7147 312.314 60.0564C315.078 58.4766 318.106 57.95 321.266 57.8183C321.529 57.8183 321.793 57.8183 322.056 57.8183C326.532 55.9752 329.033 59.1348 331.93 61.5046C332.061 61.6362 332.193 61.8995 332.456 62.0312C334.694 63.0844 334.958 64.7959 334.431 67.0339C333.905 68.7454 334.694 69.9303 336.669 70.0619C337.722 70.1936 338.381 70.7202 339.171 71.5101C339.961 72.4317 340.882 72.8266 341.277 71.1151C341.409 70.3252 342.067 69.9303 342.462 69.272C343.12 67.9555 343.384 66.7706 342.199 65.5858C341.409 64.9275 340.75 64.006 340.882 62.9527C341.145 60.583 340.356 58.6082 339.302 56.5018C338.776 55.4486 338.249 54.2637 337.986 52.9472C337.196 49.3926 338.512 46.4963 341.145 44.2582C341.409 43.9949 342.199 43.7316 342.067 43.4683C341.145 41.0986 343.384 39.6504 343.91 37.9389C344.7 35.7008 346.675 33.7261 348.255 31.7513C350.493 29.2499 353.257 27.1435 354.047 23.5889C354.837 19.9026 355.627 19.5077 359.445 19.6393C359.708 19.6393 359.972 19.6393 360.235 19.5077C363.263 18.3228 365.896 18.3228 368.397 20.6926C369.319 21.6141 369.977 21.2192 370.372 20.1659C371.03 18.4545 372.61 17.5329 373.927 16.4797C374.848 15.6898 376.033 15.5581 377.218 16.0847C381.431 17.7962 385.907 17.6646 390.383 17.9279C393.806 18.0595 397.229 18.1912 399.467 21.3508C400.257 22.5357 401.837 22.6673 403.153 21.8774C404.47 21.0875 405.918 20.5609 407.498 20.0343C410.131 18.9811 411.842 16.2164 411.447 13.3201C411.447 13.0568 411.184 12.7935 411.316 12.5302C412.501 10.0288 412.632 7.26409 412.764 4.63105C412.896 3.18288 414.475 3.05123 415.792 3.31454C419.873 3.70949 423.954 4.2361 427.246 7.26409C428.562 8.5806 430.274 7.79069 431.722 7.39574C432.643 7.13243 433.697 6.60583 434.618 7.13243C436.988 8.44895 438.568 7.13243 440.016 5.55261C440.937 4.63105 441.727 3.84114 443.044 3.57784C444.229 3.31454 444.887 2.39297 445.545 1.33976C446.072 0.549851 446.862 -0.371711 447.783 0.154896C450.943 2.39297 454.234 0.813154 457.525 0.944806C458.974 0.944806 460.553 1.20811 461.343 2.26132C462.66 3.97279 463.976 3.44619 465.161 2.65628C467.136 1.33976 469.374 1.33976 471.612 1.07646C472.402 0.944806 473.455 0.944806 473.719 1.47141C475.035 4.10445 478.326 4.89436 479.116 7.92234C479.38 8.84391 479.775 9.63382 480.565 10.1604C482.934 11.6086 483.856 14.2416 485.567 16.2164C486.357 17.138 486.226 18.1912 485.831 19.2444C484.777 22.404 485.831 24.6421 488.069 27.1435C490.833 30.3031 493.993 32.8045 496.889 35.7008C498.864 37.6756 498.864 40.7036 498.996 43.3366C499.127 44.9165 497.548 45.9697 495.968 46.1013C492.808 46.3646 489.912 47.6811 487.015 47.8128C488.464 49.261 489.648 50.9724 490.965 52.6839C491.36 53.2105 491.492 54.0004 492.018 54.3954C494.388 56.6335 494.125 58.8715 492.413 61.2413C491.228 62.8211 491.36 64.006 493.203 65.1908C495.573 66.7706 495.573 68.0872 493.861 70.3252C493.73 70.5885 493.466 70.7202 493.335 70.8518C492.808 71.6418 491.755 72.3 492.413 73.2216C493.071 74.0115 493.861 72.9583 494.52 72.5633C495.441 71.9051 496.363 72.1684 497.416 72.4317C499.786 73.2216 502.024 73.4849 504.525 73.0899C506.763 72.695 507.948 73.6165 508.606 75.9863C509.001 77.3028 509.66 77.6977 510.976 77.5661C513.214 77.3028 515.321 76.6445 517.295 75.4596C520.06 73.7482 523.088 74.4064 525.984 74.5381C527.433 74.6697 528.222 75.9863 527.696 77.5661C526.906 80.1991 529.012 82.0422 529.276 84.412C529.407 85.3335 530.461 84.9386 530.987 84.6753C533.225 83.622 535.068 84.6753 536.78 85.7285C538.886 86.9134 539.018 88.8881 537.306 90.7312C535.99 92.0478 535.727 93.2326 537.175 94.6808C538.886 96.3923 538.096 99.0253 539.018 101C539.281 101.527 539.018 102.317 539.544 102.58C541.914 104.028 541.519 106.134 541.124 108.373C540.993 109.294 541.388 109.952 541.651 110.742C542.177 112.585 541.519 113.902 539.676 114.165C538.623 114.297 538.755 114.955 538.886 115.482C539.413 118.773 539.544 122.196 543.757 123.249C545.205 123.644 545.469 125.092 545.469 126.54C545.469 128.252 545.995 129.568 547.839 129.832C549.55 130.095 550.472 129.305 551.13 127.594C552.051 125.092 554.553 124.829 556.791 124.829C558.371 124.829 559.95 124.697 561.53 124.434C565.085 123.776 567.981 124.829 569.956 127.857C571.141 129.7 573.116 131.017 574.037 133.123C574.564 134.308 575.749 133.65 576.275 132.991C577.855 131.28 579.303 131.412 580.883 132.991C581.541 133.65 582.463 134.045 583.384 134.176C585.359 134.571 586.807 135.493 586.807 137.863C587.334 135.624 589.177 135.229 590.625 134.308C594.18 132.202 597.734 130.358 602.211 130.358C606.16 130.358 610.373 129.568 613.138 126.146C613.664 125.487 614.454 125.224 615.376 125.224C616.824 125.092 618.272 124.697 619.72 124.171C621.827 123.381 622.748 124.171 622.485 126.409C621.958 130.885 622.222 131.412 626.566 132.728C628.014 133.255 628.804 133.913 628.541 135.624C627.883 139.442 628.804 142.734 631.569 145.63C633.149 147.341 635.387 147.868 637.23 148.921C638.678 149.843 640.126 150.633 640.785 152.213C641.443 153.792 642.891 154.714 644.076 155.899C645.261 157.084 646.446 156.162 647.499 155.636C648.552 155.109 648.42 154.187 648.157 153.266C648.025 152.739 647.894 152.344 647.762 151.818C647.236 148.263 647.894 147.605 651.448 147.605C651.58 147.605 651.843 147.605 651.975 147.605C656.056 147.473 656.056 147.473 657.504 151.028C657.636 151.423 657.768 151.949 658.163 152.081C659.874 152.739 661.586 153.134 663.297 154.187C664.35 154.846 666.852 154.582 668.431 153.002C669.616 151.818 671.986 153.266 672.249 155.241C672.644 158.532 674.224 160.243 677.515 160.638C679.227 160.902 680.412 161.428 680.675 163.14C680.807 164.193 681.333 164.193 682.255 163.93C684.23 163.271 686.073 162.745 687.521 160.902C689.364 158.664 690.549 158.795 692.129 161.297C692.787 162.481 693.314 163.535 693.577 164.983C693.972 167.353 696.078 168.932 698.316 168.011C701.871 166.431 704.504 168.932 707.664 169.064C708.585 169.064 708.585 169.986 708.585 170.775C708.585 173.935 709.638 176.436 712.93 177.49C713.72 177.753 714.246 178.411 714.904 178.938C716.221 179.991 717.801 180.123 718.986 178.938C720.302 177.621 722.014 177.226 723.725 177.095C724.515 176.963 725.437 177.095 726.227 176.831C729.386 175.778 729.518 176.963 730.703 179.596C731.229 180.781 730.966 181.703 729.913 182.361C729.649 182.492 729.386 182.756 729.123 182.887C725.173 185.389 725.042 187.495 728.728 190.523C730.703 192.103 732.809 193.551 732.019 196.579C731.888 196.974 732.282 197.369 732.414 197.764C733.599 201.055 733.072 201.45 730.044 203.03C726.49 204.873 723.593 207.638 722.145 211.587C721.487 213.431 720.434 214.221 718.591 213.694C716.484 213.036 714.773 214.747 712.535 214.879C713.456 215.405 714.246 215.932 714.51 216.722C715.431 219.882 717.932 220.671 720.697 221.198C721.487 221.33 721.882 221.066 722.409 220.54C723.462 219.223 724.778 218.96 726.095 220.145C727.411 221.33 727.938 223.568 727.016 224.884C726.095 226.201 725.042 227.517 723.857 228.702C722.804 229.755 721.619 230.019 720.302 229.36C719.512 228.965 718.591 228.702 717.801 228.307C717.274 228.044 716.484 227.781 716.221 228.439C715.563 230.414 713.588 231.73 713.456 233.837C713.325 235.548 712.93 237.128 712.271 238.444C712.535 238.971 712.798 238.971 713.193 238.971C717.669 239.234 718.854 240.288 718.986 244.632C719.117 246.607 719.512 248.318 720.697 249.635C722.277 251.215 722.277 252.926 722.277 254.769C722.277 255.033 722.277 255.427 722.145 255.691C722.014 256.086 721.619 256.086 721.355 256.349C721.75 256.217 722.014 256.086 722.409 255.954C722.672 255.822 723.067 255.822 723.33 255.822C724.383 256.744 724.647 258.06 725.173 259.377C725.963 261.878 725.042 262.8 723.067 264.643C720.96 266.618 719.117 269.383 719.776 272.674C720.039 274.122 719.907 275.175 718.196 275.439C717.011 275.57 717.406 276.36 717.406 277.15C717.143 280.441 716.879 283.733 714.773 286.497C713.72 287.814 712.666 288.472 710.955 288.077C708.98 287.682 707.005 287.287 705.162 288.209C704.636 288.472 703.846 288.34 703.187 288.077C703.056 287.945 702.924 287.945 702.792 287.814C701.081 286.761 698.843 288.472 697 286.102C695.683 284.523 692.787 286.497 690.681 286.892C689.364 287.156 688.179 287.419 686.994 286.892C685.283 286.102 683.44 285.971 681.465 285.707C677.515 285.181 677.647 285.839 676.331 289.657C675.804 291.105 675.541 292.685 675.277 294.265C675.014 295.976 674.092 296.898 672.381 296.634C671.328 296.503 670.538 296.898 669.748 297.556C668.431 298.741 666.852 299.136 665.008 299.267C661.717 299.531 658.689 300.716 656.583 303.612C655.925 304.534 655.793 305.455 656.056 306.377C656.319 307.562 656.451 308.615 656.451 309.8C656.451 313.354 656.451 313.354 654.081 315.592C654.081 315.724 654.213 315.856 654.476 315.856C655.661 316.119 657.373 315.461 657.636 317.172C657.899 318.884 657.899 320.858 656.188 321.912C654.608 322.965 653.95 324.281 653.818 326.256C653.555 328.889 652.238 331.127 650 332.707C649.21 333.365 648.025 333.892 647.236 333.102C645.919 331.654 644.339 332.049 642.891 331.785C639.468 331.127 636.177 331.522 632.885 332.444C632.096 332.707 631.174 332.97 630.384 332.575C626.303 330.996 624.065 333.497 621.827 336.262C620.247 338.236 619.062 340.474 617.614 342.318C616.692 343.502 615.639 344.819 613.928 345.082C612.216 345.346 611.69 344.687 612.348 342.976C612.611 342.318 613.138 341.791 612.479 341.264C611.821 340.738 611.163 341.001 610.636 341.396C607.872 343.107 604.844 344.292 601.947 345.741C599.709 346.794 598.656 348.9 597.734 351.138C596.813 353.376 596.023 355.614 594.443 357.458C593.917 357.984 593.522 358.642 592.732 358.774C591.679 359.037 590.362 358.906 589.704 357.984C588.914 356.931 590.23 356.536 590.757 355.878C591.547 354.824 593.39 354.298 592.6 352.455C591.942 350.743 589.835 350.085 587.729 350.348C580.883 351.533 575.485 354.824 572.589 361.539C571.536 363.777 570.219 366.015 567.586 366.805C566.533 367.068 565.348 367.331 564.822 366.147C564.163 364.83 564.822 364.04 566.006 363.382C567.455 362.592 568.903 361.802 569.693 360.222C570.088 359.432 570.351 358.642 569.824 357.852C569.298 357.063 568.508 356.931 567.586 357.063C566.665 357.194 565.743 357.458 564.822 357.326C558.371 356.536 553.5 359.301 549.287 363.908C547.312 366.015 545.337 367.858 542.572 368.911C539.544 370.096 537.965 372.861 536.253 375.494C534.278 378.39 532.435 381.55 530.724 384.709C528.617 388.791 524.668 389.844 520.85 391.16C519.665 391.555 519.27 390.765 519.007 389.712C518.744 388.001 520.06 385.763 522.035 384.709C522.43 384.446 522.825 384.183 523.22 384.183C527.433 384.051 529.012 380.76 530.724 377.864C530.987 377.337 531.25 376.81 531.382 376.284C531.514 375.362 530.855 374.704 530.197 374.177C529.539 373.651 529.144 374.441 528.749 374.704C528.222 375.099 527.696 375.494 527.432 376.152C525.984 379.18 523.483 380.76 520.323 381.418C519.533 381.55 518.612 381.681 517.954 382.076C516.374 382.866 515.321 384.051 515.584 386.026C516.9 398.138 521.508 409.065 528.617 418.939C531.25 422.625 533.752 426.311 536.78 429.603C537.57 430.524 538.36 431.314 539.281 431.972C540.993 433.552 542.572 433.289 544.679 432.762C549.023 431.709 550.603 428.418 552.71 425.258C553.631 423.942 554.553 423.152 556.133 423.415C557.581 423.678 557.844 424.6 557.844 425.916C557.844 427.496 559.161 428.154 560.477 428.418C561.925 428.681 562.715 427.891 562.978 426.706C563.373 425.39 564.295 424.6 565.48 424.205C569.429 422.757 573.247 422.362 577.328 423.547C579.83 424.337 582.331 425.258 584.964 425.258C586.676 425.258 588.651 427.76 588.782 429.603C588.782 431.051 587.202 432.894 585.623 433.289C581.41 434.342 578.908 439.345 580.488 443.426C581.936 447.112 580.751 449.219 576.934 450.009C575.09 450.404 573.247 450.667 571.404 451.457C569.561 452.247 567.455 451.457 565.48 451.062C563.9 450.799 562.584 450.799 561.135 451.588C559.424 452.51 557.317 452.378 555.343 452.905C554.026 453.168 553.105 451.983 552.446 450.93C551.13 448.56 548.892 447.244 546.39 446.322C544.284 445.532 542.309 445.927 540.466 446.981C539.281 447.639 537.965 448.429 539.544 450.009C539.808 450.272 540.071 450.799 539.808 450.93C538.096 451.852 538.228 453.827 537.306 455.275C536.78 456.196 535.727 455.933 534.805 455.538C533.489 454.88 532.962 455.538 531.909 456.328C529.539 458.171 527.959 460.146 526.643 462.91C525.721 464.885 523.483 465.017 521.771 463.7C520.587 462.779 519.402 462.516 518.085 463.042C516.9 463.437 515.847 463.174 514.662 463.305C509.265 463.832 504.657 466.07 500.312 469.23C498.074 470.81 497.548 473.706 496.363 476.076C495.704 477.392 494.915 478.05 493.598 478.972C491.228 480.552 488.2 481.21 486.884 484.106C486.489 485.028 485.567 485.555 484.382 485.555C478.59 485.686 472.797 485.686 467.004 485.555C465.951 485.555 465.03 485.16 464.635 484.106C464.108 482.527 462.923 482 461.475 481.868C458.052 481.605 456.472 478.972 454.366 476.866C452.654 475.022 454.629 473.048 456.736 472.258C460.027 471.073 460.553 470.678 460.29 467.387C460.027 464.095 460.159 461.199 462.397 458.303C463.713 456.591 462.923 453.958 462.528 451.72C462.002 448.692 460.685 445.927 458.184 443.821C456.472 442.373 454.892 442.373 453.181 443.558C451.47 444.874 450.153 444.348 448.442 443.426C444.624 441.583 442.649 438.028 439.753 435.395C437.646 433.552 435.54 431.972 432.512 432.236C431.064 432.367 429.747 432.631 428.562 433.552C426.851 435 425.008 435.264 423.033 434.342C422.374 434.079 421.585 433.947 420.926 433.684C417.635 432.762 416.582 429.603 418.557 426.706C420.268 424.073 422.769 422.23 425.534 420.914C428.43 419.465 431.064 417.622 433.433 415.384C436.198 412.751 439.621 411.303 442.912 409.46C443.965 408.933 444.755 408.275 445.019 406.959C445.677 404.589 446.467 404.325 448.442 405.774C449.363 406.564 450.153 406.564 451.206 406.037C451.601 405.774 452.259 405.642 452.523 405.379C455.551 402.219 459.632 401.298 463.318 399.586C464.24 399.059 465.293 399.454 466.083 399.059C466.215 398.928 466.215 398.928 466.215 398.928C466.083 398.928 465.951 399.059 465.82 399.059C463.713 398.928 463.186 398.006 463.318 395.768C463.45 393.135 463.581 390.37 463.45 387.606C463.845 389.581 461.607 391.029 462.265 393.003C462.265 393.135 462.133 393.267 462.002 393.398C460.422 394.452 458.579 393.135 456.999 394.188C456.472 394.583 455.814 393.53 455.287 392.872C454.497 391.687 453.708 390.502 451.864 391.16C451.601 391.292 451.206 391.16 450.943 391.029C450.021 390.634 449.89 389.712 449.626 388.791C448.968 389.844 448.178 389.844 447.257 389.186C445.282 387.737 443.439 387.737 441.464 388.922C440.147 389.712 438.568 389.581 437.119 389.449C433.96 389.317 430.669 388.791 427.509 389.712C426.851 389.844 426.061 389.712 425.534 389.449C425.139 389.449 425.402 389.975 425.402 389.581C425.402 389.449 425.402 389.449 425.666 389.449C426.982 389.712 428.299 389.712 429.615 390.239C430.274 390.502 431.064 390.502 431.853 390.239C436.066 388.132 439.621 390.897 443.439 392.082C444.097 392.214 444.624 392.74 444.492 393.53C444.36 394.188 443.702 394.32 443.175 394.583C440.279 395.9 437.251 395.11 434.355 394.583C425.929 393.003 417.635 391.292 409.604 388.264C408.419 387.869 407.235 387.342 407.103 385.894C406.971 385.368 406.708 384.973 406.181 384.709C403.548 383.656 401.442 381.681 398.809 380.365C395.913 379.048 393.411 380.102 390.778 379.97C390.12 379.838 389.725 379.312 389.33 378.917C387.882 376.547 388.277 375.099 390.515 373.914C391.7 373.256 392.885 373.124 394.069 373.124C395.254 373.124 396.439 372.992 397.492 372.466C398.282 371.939 399.335 371.544 399.204 370.623C399.072 369.569 397.887 370.096 397.097 369.964C395.123 369.569 393.411 368.516 391.436 367.99C390.646 367.726 389.462 367.068 389.593 368.78C389.725 370.886 388.013 370.754 387.355 370.096C384.196 367.2 379.588 365.357 378.798 360.354C378.535 358.642 377.086 358.906 376.296 359.301C373.137 361.275 369.845 359.959 366.686 359.564C365.633 359.432 364.579 359.564 363.526 359.827C359.445 360.617 355.89 362.987 351.678 363.513C350.624 363.645 350.624 364.435 350.888 365.225C352.073 369.043 351.151 372.203 348.386 374.967C347.86 375.494 347.465 376.284 347.07 377.074C343.91 383.919 339.171 389.581 334.694 395.637C327.717 404.852 318.106 410.776 309.681 418.281C309.154 418.807 308.496 419.202 307.969 419.729C305.863 421.835 305.863 422.23 308.759 423.02C310.076 423.415 310.866 424.205 310.602 425.521C310.076 429.734 310.471 434.079 309.681 438.292C309.286 440.003 308.101 440.53 306.653 440.925C305.336 441.188 304.546 440.398 303.888 439.213C303.493 438.423 303.361 437.502 303.493 436.58C304.02 433.815 302.703 431.972 300.728 430.393C296.91 427.365 290.46 427.233 286.247 429.866C284.14 431.182 281.639 431.709 279.532 433.157C278.743 433.684 278.084 434.079 277.558 435C276.373 437.238 275.715 437.37 273.74 436.185C271.37 434.869 271.37 434.869 270.975 437.502C270.712 439.213 268.342 440.398 265.841 439.871C262.154 439.082 258.6 438.028 255.177 436.58C251.227 434.869 248.594 432.236 247.409 428.154C247.278 427.496 246.883 426.97 246.225 426.575C244.25 425.653 244.645 424.337 245.566 422.888C246.225 421.835 246.883 421.045 247.673 420.124C248.858 418.939 250.174 418.412 251.754 419.202C252.807 419.729 253.992 419.597 255.177 419.597C255.967 419.729 256.23 420.124 256.362 420.914C256.493 420.255 256.098 419.729 255.967 419.202C255.967 418.807 255.967 418.281 256.23 418.017C257.81 416.701 257.81 415.384 256.098 414.199C255.44 413.804 255.703 413.015 255.835 412.356C256.493 409.723 259.258 408.407 260.18 405.905C260.18 405.774 260.443 405.642 260.575 405.774C263.076 406.432 264.261 404.72 265.841 403.272C266.894 402.219 267.42 401.561 267.026 400.244C266.762 399.323 266.762 398.401 266.762 397.48C266.762 395.505 267.684 394.452 269.527 393.925C271.238 393.53 272.95 393.267 274.661 392.74C275.846 392.345 276.373 391.687 275.583 390.502C274.135 388.791 274.925 387.342 276.109 385.894C276.504 385.368 276.899 384.841 277.426 384.314C278.216 383.393 278.348 382.603 277.163 381.945C275.056 380.497 274.266 378.785 275.583 376.284C276.636 374.441 275.451 372.597 274.793 370.754C273.476 366.541 273.476 366.278 277.294 364.172C278.611 363.513 279.927 362.724 281.507 362.724C282.429 362.724 283.087 362.329 283.745 361.67C284.535 360.749 285.72 360.617 286.905 360.354C288.09 360.091 288.88 360.485 289.011 361.67C289.275 363.119 290.065 364.435 289.67 366.015C289.538 366.541 289.143 366.936 289.143 367.726C289.275 367.068 289.538 366.673 289.801 366.147C290.854 363.119 291.249 362.987 293.882 364.435C294.409 364.698 294.804 364.698 295.199 364.435C296.515 363.513 297.832 364.172 298.359 365.225C299.544 367.331 301.782 368.648 303.23 370.886C303.098 368.648 304.151 367.463 305.863 366.41C308.101 364.962 309.681 365.093 310.997 367.463C311.392 368.121 311.655 368.78 312.05 369.438C312.709 370.491 313.499 371.018 314.552 369.964C315.737 368.911 317.053 369.701 318.501 369.569C316.658 368.78 315.737 367.068 314.288 365.883C312.445 364.435 312.182 362.592 313.63 360.749C317.053 356.009 316.658 349.558 312.577 345.609C311.787 344.819 310.866 345.082 310.076 345.214C308.364 345.609 307.311 345.082 306.784 343.502C305.994 341.133 303.493 341.396 301.782 340.606C299.412 339.553 298.885 338.763 300.202 336.525C300.992 335.34 300.597 333.892 301.123 332.707C299.017 332.839 297.042 331.127 296.91 329.021C296.91 328.099 297.174 327.309 298.095 327.046C299.675 326.388 299.807 325.334 299.543 323.886C299.149 322.175 298.754 320.463 300.333 319.015C300.992 318.489 300.465 317.435 300.333 316.119C299.412 318.094 298.359 319.41 296.516 319.805C295.067 320.2 293.751 319.805 293.356 318.62C292.698 316.251 290.591 314.802 289.933 312.433C286.773 313.881 283.219 311.774 283.482 308.22C283.614 306.772 282.692 306.113 282.165 305.192C280.981 302.822 280.981 302.427 283.219 301.111C284.009 300.584 284.535 300.057 284.798 299.004C285.457 296.239 284.667 293.211 285.983 290.447C285.983 290.315 285.983 290.184 285.983 290.184C284.14 286.892 285.72 282.943 284.009 279.783C282.429 281.363 280.849 281.758 278.479 280.705C277.426 280.31 276.636 279.783 275.451 280.178C274.661 280.441 274.003 279.783 273.608 279.256C271.897 277.282 270.053 275.044 269.79 272.674C269.659 269.646 268.079 270.304 266.499 270.304C265.182 270.436 264.393 269.514 263.339 269.119C262.418 268.724 261.496 267.934 260.575 268.724C259.653 269.514 259.126 270.567 259.39 271.884C259.521 272.542 260.18 273.464 259.39 273.99C258.6 274.649 257.678 274.122 256.757 273.727C254.65 272.937 253.86 271.094 253.334 269.119C252.017 269.778 250.569 270.831 249.121 269.251C247.278 267.144 249.384 265.828 250.306 264.38C249.253 263.985 248.594 264.643 247.936 265.038C246.488 265.828 245.04 265.96 244.118 264.38C243.723 263.722 243.328 263.853 242.67 263.985C240.432 264.248 239.379 263.458 239.51 261.22C239.642 259.245 238.72 258.587 237.141 258.587C234.771 258.455 233.059 257.139 231.875 255.296C230.163 252.663 228.188 250.688 224.634 251.478C223.449 251.741 222.264 251.346 221.342 250.688C219.631 249.635 218.183 250.293 217.261 251.741C216.076 253.716 214.365 253.979 212.522 253.189C211.074 252.663 210.679 253.189 210.415 254.374C210.02 255.822 208.967 256.349 207.519 255.954C205.413 255.164 203.043 256.349 201.068 254.769C200.541 254.374 200.278 255.164 199.883 255.427C196.592 257.666 194.485 257.402 191.852 254.638C191.194 253.848 190.404 253.321 188.956 253.848C190.668 254.901 192.116 255.822 191.721 258.061C191.326 260.43 189.746 261.352 187.64 260.43C184.743 259.114 184.48 259.245 183.822 262.142C183.295 264.643 181.057 265.17 179.214 265.565C177.107 265.96 175.264 267.276 173.026 267.408C171.315 267.539 170.657 269.514 169.998 271.094C169.077 273.727 166.97 275.57 165.654 277.94C164.864 279.388 162.757 279.651 160.914 279.52C156.965 279.52 153.279 280.441 149.461 281.626C148.539 281.889 147.486 282.284 146.564 282.153C141.825 281.495 137.217 282.943 132.478 283.338C129.186 283.601 126.817 285.312 125.5 288.209C124.315 290.842 122.472 292.685 119.971 294.001C117.338 295.45 114.573 295.055 111.808 294.923C110.887 294.791 110.623 293.87 110.097 293.211C108.912 290.973 107.595 288.867 104.699 288.209C102.856 287.814 101.934 286.234 101.408 284.391C100.881 282.284 99.5646 281.363 97.4582 281.363C96.6683 281.363 95.7467 281.231 94.9568 281.1C94.2986 280.836 93.6403 281.1 93.1137 281.626C90.349 284.391 86.9261 284.654 83.3715 283.996C81.3967 283.601 79.5536 283.469 77.9738 282.021C76.6572 280.968 74.8141 281.363 73.2343 281.889C70.9962 282.811 69.2847 282.548 67.9682 280.31C67.4416 279.256 66.3884 278.993 65.2036 279.125C64.4136 279.256 63.4921 279.651 62.7022 279.388C60.3324 278.335 58.226 278.203 56.2512 280.178C55.7246 280.705 54.6714 280.31 53.8815 279.915C50.8535 278.335 47.6939 277.018 45.7191 273.99C45.1925 273.069 44.2709 272.674 43.2177 272.805C42.1645 272.937 42.1645 273.99 41.9012 274.649C40.848 277.808 39.2682 278.993 36.1085 278.73C35.3186 278.598 35.3186 278.993 35.0553 279.388C34.1338 280.836 32.2906 281.231 30.7108 280.441C28.3411 279.256 27.8145 278.203 28.4727 276.228C28.8677 275.175 29.2626 274.254 28.2094 273.595C27.0246 272.805 26.103 271.226 24.2599 272.279C22.9434 272.937 21.7585 272.806 20.442 272.411C18.8622 271.884 17.6773 271.226 17.5457 269.251C17.414 267.408 16.6241 265.696 15.0443 264.511C14.1227 263.853 13.0695 263.458 12.0163 263.853C10.1732 264.643 9.38325 263.59 8.59334 262.273C7.27683 259.772 6.35526 257.139 4.24884 255.033C3.45893 254.111 3.06397 253.321 1.74746 253.979C0.825894 254.243 0.299288 253.716 0.0359844 252.794Z" fill="black"/>
</svg>
