<svg width="733" height="486" fill="none" xmlns="http://www.w3.org/2000/svg"><path d="M.036 252.794v-5.924c-.395-5.398 2.501-9.084 6.714-12.112 1.053-.79 1.185-1.843 1.448-3.028 1.317-6.187 2.107-12.638 7.11-17.246.79-.79.921-1.712 1.184-2.633.527-3.028 2.765-3.95 5.003-1.843 1.317 1.185 2.502 1.711 4.213 1.448 1.053-.263 1.975.395 3.16.921 0-2.238-1.448-3.028-2.765-3.818-3.423-2.238-4.345-3.554-2.896-7.372 1.711-4.476.526-8.689-.659-12.902-.131-.395-.263-.79-.526-1.053-2.502-2.238-2.107-4.345-.395-6.978 3.16-4.607 6.582-8.952 9.742-13.428 4.74-6.714 9.61-13.297 14.745-19.485 2.896-3.554 6.451-6.845 10.269-9.742a22.531 22.531 0 0 0 6.188-6.977c.658-1.185 1.58-1.843 2.764-2.37 2.238-.922 4.476-1.448 6.846-1.317 2.37.132 3.686-1.053 4.476-3.159 1.448-3.95 2.633-7.899.659-12.112-.79-1.712-1.975-3.291-3.029-4.74-1.184-1.579-1.58-3.159-.79-4.871.922-1.711 2.37-2.764 4.608-2.501-3.686-1.975-4.344-6.188-7.24-8.69.395-2.5-1.975-4.08-2.107-6.318-.132-2.107-1.316-3.555-2.764-4.74-1.185-.921-2.107-2.106-2.37-3.686-.132-.79-.659-1.317-1.317-1.712-2.238-1.448-3.028-3.028-1.975-5.397 1.317-2.897.79-5.53-.395-8.163-.395-1.053-.658-1.974-.131-3.028.526-1.316.395-2.764 0-4.08-.264-1.186-1.58-2.239-.527-3.424s2.37-1.975 3.95-2.501c3.686-1.448 6.846.395 10.137 1.58.263.131.527.395.79.658 1.448 1.843 2.106 2.106 3.554.263 2.107-2.764 4.872-4.344 7.768-5.924 1.185-.658 1.711-1.58 1.448-2.897-.526-2.764 1.185-4.739 2.37-6.845.658-1.185 1.975-1.449 3.291-1.449 2.633-.131 5.135-.395 7.636-1.184.395-.132.79-.264 1.185-.264 4.344 1.317 8.557-1.185 13.033-.395 1.185.264 2.107-.79 3.16-1.316 2.765-1.58 5.661-2.765 8.952-2.502.79 0 1.58.264 2.37.659 2.633 1.711 5.398 2.764 8.689 1.316 1.711-.658 3.555.527 5.398.79 1.316.132 2.369.395 3.554-.921 1.317-1.449 3.16-.922 4.476.131 1.185.79 2.37 1.448 3.687.79 2.764-1.316 5.134-.131 7.109 1.317 3.291 2.501 6.977 2.633 10.795 1.711 1.185-.263 1.712 0 1.975 1.185.263 1.317.922 2.238 1.975 3.028.79.527 1.448.527 2.238.132 3.291-1.843 7.109-1.317 9.742 1.448 2.502 2.501 5.003 2.764 8.163 1.58 3.028-1.054 6.187-.527 9.347-.264 1.185.132 1.316 1.185 1.316 2.107.132 2.238-.395 4.476 2.107 5.924.79.527.395 1.448.263 2.37a122.53 122.53 0 0 1 8.689-1.58c3.028-.395 6.451.79 9.216 2.633 1.185.79.79 2.37.263 3.686-.263.79-1.185 1.448-.922 2.765 1.449-1.448 2.502-2.896 2.239-5.003-.395-3.028 1.843-4.74 4.476-3.423 1.711.922 3.818 1.185 5.134 2.765.527.658 1.053.132 1.58 0 1.053-.527 1.843-1.317 2.501-2.37.527-.79 1.053-1.58 1.843-2.238 3.423-2.896 4.213-2.633 5.53 1.58.395 1.448 1.58 2.501 2.501 3.686.527.79 1.185.264 1.712-.131 1.843-1.712 3.686-1.054 5.924-.79 3.95.526 5.266 2.764 5.529 6.187 0 .395.132.79.659 1.053.921-.263 1.053-1.184 1.316-1.974 1.712-3.818 4.608-5.793 8.821-5.53 1.185 0 1.843-.395 2.501-1.316.658-.79 1.185-1.58 2.107-2.107 2.238-1.448 4.212-.921 5.266 1.448.526 1.317 1.184 2.634 2.369 3.423 1.185.922 1.185 2.239 1.054 3.423-.395 2.765 1.843 4.345 2.633 6.583.395 1.053 1.448-.132 2.238 0 1.974.395 2.764-.658 3.159-2.37.395-1.316 1.054-1.974 2.765-2.106 1.711-.132 3.16-1.843 4.871-2.502 2.765-1.053 3.555-.79 4.081 2.238.264 1.975 1.317 1.844 2.502 1.185 2.764-1.58 5.792-2.106 8.952-2.238h.79c4.476-1.843 6.977 1.317 9.874 3.687.131.131.263.395.526.526 2.238 1.053 2.502 2.765 1.975 5.003-.526 1.711.263 2.896 2.238 3.028 1.053.132 1.712.658 2.502 1.448.79.922 1.711 1.317 2.106-.395.132-.79.79-1.185 1.185-1.843.658-1.317.922-2.501-.263-3.686-.79-.659-1.449-1.58-1.317-2.633.263-2.37-.526-4.345-1.58-6.451-.526-1.053-1.053-2.238-1.316-3.555-.79-3.554.526-6.45 3.159-8.689.264-.263 1.054-.526.922-.79-.922-2.37 1.317-3.818 1.843-5.53.79-2.237 2.765-4.212 4.345-6.187 2.238-2.501 5.002-4.608 5.792-8.162.79-3.686 1.58-4.081 5.398-3.95.263 0 .527 0 .79-.131 3.028-1.185 5.661-1.185 8.162 1.185.922.921 1.58.526 1.975-.527.658-1.712 2.238-2.633 3.555-3.686.921-.79 2.106-.922 3.291-.395 4.213 1.711 8.689 1.58 13.165 1.843 3.423.131 6.846.263 9.084 3.423.79 1.185 2.37 1.316 3.686.526 1.317-.79 2.765-1.316 4.345-1.843 2.633-1.053 4.344-3.818 3.949-6.714 0-.263-.263-.527-.131-.79 1.185-2.501 1.316-5.266 1.448-7.899.132-1.448 1.711-1.58 3.028-1.316 4.081.394 8.162.921 11.454 3.95 1.316 1.316 3.028.526 4.476.13.921-.263 1.975-.79 2.896-.263 2.37 1.317 3.95 0 5.398-1.58.921-.92 1.711-1.71 3.028-1.974 1.185-.263 1.843-1.185 2.501-2.238.527-.79 1.317-1.712 2.238-1.185 3.16 2.238 6.451.658 9.742.79 1.449 0 3.028.263 3.818 1.316 1.317 1.712 2.633 1.185 3.818.395 1.975-1.316 4.213-1.316 6.451-1.58.79-.131 1.843-.131 2.107.395 1.316 2.633 4.607 3.423 5.397 6.451.264.922.659 1.712 1.449 2.238 2.369 1.449 3.291 4.082 5.002 6.056.79.922.659 1.975.264 3.028-1.054 3.16 0 5.398 2.238 7.9 2.764 3.16 5.924 5.66 8.82 8.557 1.975 1.975 1.975 5.003 2.107 7.636.131 1.58-1.448 2.633-3.028 2.764-3.16.264-6.056 1.58-8.953 1.712 1.449 1.448 2.633 3.16 3.95 4.87.395.528.527 1.317 1.053 1.712 2.37 2.238 2.107 4.476.395 6.846-1.185 1.58-1.053 2.765.79 3.95 2.37 1.58 2.37 2.896.658 5.134-.131.263-.395.395-.526.527-.527.79-1.58 1.448-.922 2.37.658.79 1.448-.264 2.107-.659.921-.658 1.843-.395 2.896-.131 2.37.79 4.608 1.053 7.109.658 2.238-.395 3.423.526 4.081 2.896.395 1.317 1.054 1.712 2.37 1.58 2.238-.263 4.345-.922 6.319-2.106 2.765-1.712 5.793-1.054 8.689-.922 1.449.132 2.238 1.448 1.712 3.028-.79 2.633 1.316 4.476 1.58 6.846.131.921 1.185.527 1.711.263 2.238-1.053 4.081 0 5.793 1.053 2.106 1.185 2.238 3.16.526 5.003-1.316 1.317-1.579 2.502-.131 3.95 1.711 1.711.921 4.344 1.843 6.319.263.527 0 1.317.526 1.58 2.37 1.448 1.975 3.554 1.58 5.793-.131.921.264 1.579.527 2.369.526 1.843-.132 3.16-1.975 3.423-1.053.132-.921.79-.79 1.317.527 3.291.658 6.714 4.871 7.767 1.448.395 1.712 1.843 1.712 3.291 0 1.712.526 3.028 2.37 3.292 1.711.263 2.633-.527 3.291-2.238.921-2.502 3.423-2.765 5.661-2.765 1.58 0 3.159-.132 4.739-.395 3.555-.658 6.451.395 8.426 3.423 1.185 1.843 3.16 3.16 4.081 5.266.527 1.185 1.712.527 2.238-.132 1.58-1.711 3.028-1.579 4.608 0 .658.659 1.58 1.054 2.501 1.185 1.975.395 3.423 1.317 3.423 3.687.527-2.239 2.37-2.634 3.818-3.555 3.555-2.106 7.109-3.95 11.586-3.95 3.949 0 8.162-.79 10.927-4.212.526-.659 1.316-.922 2.238-.922 1.448-.132 2.896-.527 4.344-1.053 2.107-.79 3.028 0 2.765 2.238-.527 4.476-.263 5.003 4.081 6.319 1.448.527 2.238 1.185 1.975 2.896-.658 3.818.263 7.11 3.028 10.006 1.58 1.711 3.818 2.238 5.661 3.291 1.448.922 2.896 1.712 3.555 3.292.658 1.579 2.106 2.501 3.291 3.686s2.37.263 3.423-.263c1.053-.527.921-1.449.658-2.37-.132-.527-.263-.922-.395-1.448-.526-3.555.132-4.213 3.686-4.213h.527c4.081-.132 4.081-.132 5.529 3.423.132.395.264.921.659 1.053 1.711.658 3.423 1.053 5.134 2.106 1.053.659 3.555.395 5.134-1.185 1.185-1.184 3.555.264 3.818 2.239.395 3.291 1.975 5.002 5.266 5.397 1.712.264 2.897.79 3.16 2.502.132 1.053.658 1.053 1.58.79 1.975-.659 3.818-1.185 5.266-3.028 1.843-2.238 3.028-2.107 4.608.395.658 1.184 1.185 2.238 1.448 3.686.395 2.37 2.501 3.949 4.739 3.028 3.555-1.58 6.188.921 9.348 1.053.921 0 .921.922.921 1.711 0 3.16 1.053 5.661 4.345 6.715.79.263 1.316.921 1.974 1.448 1.317 1.053 2.897 1.185 4.082 0 1.316-1.317 3.028-1.712 4.739-1.843.79-.132 1.712 0 2.502-.264 3.159-1.053 3.291.132 4.476 2.765.526 1.185.263 2.107-.79 2.765-.264.131-.527.395-.79.526-3.95 2.502-4.081 4.608-.395 7.636 1.975 1.58 4.081 3.028 3.291 6.056-.131.395.263.79.395 1.185 1.185 3.291.658 3.686-2.37 5.266-3.554 1.843-6.451 4.608-7.899 8.557-.658 1.844-1.711 2.634-3.554 2.107-2.107-.658-3.818 1.053-6.056 1.185.921.526 1.711 1.053 1.975 1.843.921 3.16 3.422 3.949 6.187 4.476.79.132 1.185-.132 1.712-.658 1.053-1.317 2.369-1.58 3.686-.395 1.316 1.185 1.843 3.423.921 4.739-.921 1.317-1.974 2.633-3.159 3.818-1.053 1.053-2.238 1.317-3.555.658-.79-.395-1.711-.658-2.501-1.053-.527-.263-1.317-.526-1.58.132-.658 1.975-2.633 3.291-2.765 5.398-.131 1.711-.526 3.291-1.185 4.607.264.527.527.527.922.527 4.476.263 5.661 1.317 5.793 5.661.131 1.975.526 3.686 1.711 5.003 1.58 1.58 1.58 3.291 1.58 5.134 0 .264 0 .658-.132.922-.131.395-.526.395-.79.658.395-.132.659-.263 1.054-.395.263-.132.658-.132.921-.132 1.053.922 1.317 2.238 1.843 3.555.79 2.501-.131 3.423-2.106 5.266-2.107 1.975-3.95 4.74-3.291 8.031.263 1.448.131 2.501-1.58 2.765-1.185.131-.79.921-.79 1.711-.263 3.291-.527 6.583-2.633 9.347-1.053 1.317-2.107 1.975-3.818 1.58-1.975-.395-3.95-.79-5.793.132-.526.263-1.316.131-1.975-.132-.131-.132-.263-.132-.395-.263-1.711-1.053-3.949.658-5.792-1.712-1.317-1.579-4.213.395-6.319.79-1.317.264-2.502.527-3.687 0-1.711-.79-3.554-.921-5.529-1.185-3.95-.526-3.818.132-5.134 3.95-.527 1.448-.79 3.028-1.054 4.608-.263 1.711-1.185 2.633-2.896 2.369-1.053-.131-1.843.264-2.633.922-1.317 1.185-2.896 1.58-4.74 1.711-3.291.264-6.319 1.449-8.425 4.345-.658.922-.79 1.843-.527 2.765.263 1.185.395 2.238.395 3.423 0 3.554 0 3.554-2.37 5.792 0 .132.132.264.395.264 1.185.263 2.897-.395 3.16 1.316.263 1.712.263 3.686-1.448 4.74-1.58 1.053-2.238 2.369-2.37 4.344-.263 2.633-1.58 4.871-3.818 6.451-.79.658-1.975 1.185-2.764.395-1.317-1.448-2.897-1.053-4.345-1.317-3.423-.658-6.714-.263-10.006.659-.789.263-1.711.526-2.501.131-4.081-1.579-6.319.922-8.557 3.687-1.58 1.974-2.765 4.212-4.213 6.056-.922 1.184-1.975 2.501-3.686 2.764-1.712.264-2.238-.395-1.58-2.106.263-.658.79-1.185.131-1.712-.658-.526-1.316-.263-1.843.132-2.764 1.711-5.792 2.896-8.689 4.345-2.238 1.053-3.291 3.159-4.213 5.397-.921 2.238-1.711 4.476-3.291 6.32-.526.526-.921 1.184-1.711 1.316-1.053.263-2.37.132-3.028-.79-.79-1.053.526-1.448 1.053-2.106.79-1.054 2.633-1.58 1.843-3.423-.658-1.712-2.765-2.37-4.871-2.107-6.846 1.185-12.244 4.476-15.14 11.191-1.053 2.238-2.37 4.476-5.003 5.266-1.053.263-2.238.526-2.764-.658-.659-1.317 0-2.107 1.184-2.765 1.449-.79 2.897-1.58 3.687-3.16.395-.79.658-1.58.131-2.37-.526-.789-1.316-.921-2.238-.789-.921.131-1.843.395-2.764.263-6.451-.79-11.322 1.975-15.535 6.582-1.975 2.107-3.95 3.95-6.715 5.003-3.028 1.185-4.607 3.95-6.319 6.583-1.975 2.896-3.818 6.056-5.529 9.215-2.107 4.082-6.056 5.135-9.874 6.451-1.185.395-1.58-.395-1.843-1.448-.263-1.711 1.053-3.949 3.028-5.003.395-.263.79-.526 1.185-.526 4.213-.132 5.792-3.423 7.504-6.319.263-.527.526-1.054.658-1.58.132-.922-.527-1.58-1.185-2.107-.658-.526-1.053.264-1.448.527-.527.395-1.053.79-1.317 1.448-1.448 3.028-3.949 4.608-7.109 5.266-.79.132-1.711.263-2.369.658-1.58.79-2.633 1.975-2.37 3.95 1.316 12.112 5.924 23.039 13.033 32.913 2.633 3.686 5.135 7.372 8.163 10.664.79.921 1.58 1.711 2.501 2.369 1.712 1.58 3.291 1.317 5.398.79 4.344-1.053 5.924-4.344 8.031-7.504.921-1.316 1.843-2.106 3.423-1.843 1.448.263 1.711 1.185 1.711 2.501 0 1.58 1.317 2.238 2.633 2.502 1.448.263 2.238-.527 2.501-1.712.395-1.316 1.317-2.106 2.502-2.501 3.949-1.448 7.767-1.843 11.848-.658 2.502.79 5.003 1.711 7.636 1.711 1.712 0 3.687 2.502 3.818 4.345 0 1.448-1.58 3.291-3.159 3.686-4.213 1.053-6.715 6.056-5.135 10.137 1.448 3.686.263 5.793-3.554 6.583-1.844.395-3.687.658-5.53 1.448-1.843.79-3.949 0-5.924-.395-1.58-.263-2.896-.263-4.345.526-1.711.922-3.818.79-5.792 1.317-1.317.263-2.238-.922-2.897-1.975-1.316-2.37-3.554-3.686-6.056-4.608-2.106-.79-4.081-.395-5.924.659-1.185.658-2.501 1.448-.922 3.028.264.263.527.79.264.921-1.712.922-1.58 2.897-2.502 4.345-.526.921-1.579.658-2.501.263-1.316-.658-1.843 0-2.896.79-2.37 1.843-3.95 3.818-5.266 6.582-.922 1.975-3.16 2.107-4.872.79-1.184-.921-2.369-1.184-3.686-.658-1.185.395-2.238.132-3.423.263-5.397.527-10.005 2.765-14.35 5.925-2.238 1.58-2.764 4.476-3.949 6.846-.659 1.316-1.448 1.974-2.765 2.896-2.37 1.58-5.398 2.238-6.714 5.134-.395.922-1.317 1.449-2.502 1.449-5.792.131-11.585.131-17.378 0-1.053 0-1.974-.395-2.369-1.449-.527-1.579-1.712-2.106-3.16-2.238-3.423-.263-5.003-2.896-7.109-5.002-1.712-1.844.263-3.818 2.37-4.608 3.291-1.185 3.817-1.58 3.554-4.871-.263-3.292-.131-6.188 2.107-9.084 1.316-1.712.526-4.345.131-6.583-.526-3.028-1.843-5.793-4.344-7.899-1.712-1.448-3.292-1.448-5.003-.263-1.711 1.316-3.028.79-4.739-.132-3.818-1.843-5.793-5.398-8.689-8.031-2.107-1.843-4.213-3.423-7.241-3.159-1.448.131-2.765.395-3.95 1.316-1.711 1.448-3.554 1.712-5.529.79-.659-.263-1.448-.395-2.107-.658-3.291-.922-4.344-4.081-2.369-6.978 1.711-2.633 4.212-4.476 6.977-5.792a32.85 32.85 0 0 0 7.899-5.53c2.765-2.633 6.188-4.081 9.479-5.924 1.053-.527 1.843-1.185 2.107-2.501.658-2.37 1.448-2.634 3.423-1.185.921.79 1.711.79 2.764.263.395-.263 1.053-.395 1.317-.658 3.028-3.16 7.109-4.081 10.795-5.793.922-.527 1.975-.132 2.765-.527l.132-.131c-.132 0-.264.131-.395.131-2.107-.131-2.634-1.053-2.502-3.291.132-2.633.263-5.398.132-8.162.395 1.975-1.843 3.423-1.185 5.397 0 .132-.132.264-.263.395-1.58 1.054-3.423-.263-5.003.79-.527.395-1.185-.658-1.712-1.316-.79-1.185-1.579-2.37-3.423-1.712-.263.132-.658 0-.921-.131-.922-.395-1.053-1.317-1.317-2.238-.658 1.053-1.448 1.053-2.369.395-1.975-1.449-3.818-1.449-5.793-.264-1.317.79-2.896.659-4.345.527-3.159-.132-6.45-.658-9.61.263-.658.132-1.448 0-1.975-.263-.395 0-.132.526-.132.132 0-.132 0-.132.264-.132 1.316.263 2.633.263 3.949.79.659.263 1.449.263 2.238 0 4.213-2.107 7.768.658 11.586 1.843.658.132 1.185.658 1.053 1.448-.132.658-.79.79-1.317 1.053-2.896 1.317-5.924.527-8.82 0-8.426-1.58-16.72-3.291-24.751-6.319-1.185-.395-2.369-.922-2.501-2.37-.132-.526-.395-.921-.922-1.185-2.633-1.053-4.739-3.028-7.372-4.344-2.896-1.317-5.398-.263-8.031-.395-.658-.132-1.053-.658-1.448-1.053-1.448-2.37-1.053-3.818 1.185-5.003 1.185-.658 2.37-.79 3.554-.79 1.185 0 2.37-.132 3.423-.658.79-.527 1.843-.922 1.712-1.843-.132-1.054-1.317-.527-2.107-.659-1.974-.395-3.686-1.448-5.661-1.974-.79-.264-1.974-.922-1.843.79.132 2.106-1.58 1.974-2.238 1.316-3.159-2.896-7.767-4.739-8.557-9.742-.263-1.712-1.712-1.448-2.502-1.053-3.159 1.974-6.451.658-9.61.263-1.053-.132-2.107 0-3.16.263-4.081.79-7.636 3.16-11.848 3.686-1.054.132-1.054.922-.79 1.712 1.185 3.818.263 6.978-2.502 9.742-.526.527-.921 1.317-1.316 2.107-3.16 6.845-7.899 12.507-12.376 18.563-6.977 9.215-16.588 15.139-25.013 22.644-.527.526-1.185.921-1.712 1.448-2.106 2.106-2.106 2.501.79 3.291 1.317.395 2.107 1.185 1.843 2.501-.526 4.213-.131 8.558-.921 12.771-.395 1.711-1.58 2.238-3.028 2.633-1.317.263-2.107-.527-2.765-1.712-.395-.79-.527-1.711-.395-2.633.527-2.765-.79-4.608-2.765-6.187-3.818-3.028-10.268-3.16-14.481-.527-2.107 1.316-4.608 1.843-6.715 3.291-.789.527-1.448.922-1.974 1.843-1.185 2.238-1.843 2.37-3.818 1.185-2.37-1.316-2.37-1.316-2.765 1.317-.263 1.711-2.633 2.896-5.134 2.369-3.687-.789-7.241-1.843-10.664-3.291-3.95-1.711-6.583-4.344-7.768-8.426-.131-.658-.526-1.184-1.184-1.579-1.975-.922-1.58-2.238-.659-3.687.659-1.053 1.317-1.843 2.107-2.764 1.185-1.185 2.501-1.712 4.081-.922 1.053.527 2.238.395 3.423.395.79.132 1.053.527 1.185 1.317.131-.659-.264-1.185-.395-1.712 0-.395 0-.921.263-1.185 1.58-1.316 1.58-2.633-.132-3.818-.658-.395-.395-1.184-.263-1.843.658-2.633 3.423-3.949 4.345-6.451 0-.131.263-.263.395-.131 2.501.658 3.686-1.054 5.266-2.502 1.053-1.053 1.579-1.711 1.185-3.028-.264-.921-.264-1.843-.264-2.764 0-1.975.922-3.028 2.765-3.555 1.711-.395 3.423-.658 5.134-1.185 1.185-.395 1.712-1.053.922-2.238-1.448-1.711-.658-3.16.526-4.608.395-.526.79-1.053 1.317-1.58.79-.921.922-1.711-.263-2.369-2.107-1.448-2.897-3.16-1.58-5.661 1.053-1.843-.132-3.687-.79-5.53-1.317-4.213-1.317-4.476 2.501-6.582 1.317-.659 2.633-1.448 4.213-1.448.922 0 1.58-.395 2.238-1.054.79-.921 1.975-1.053 3.16-1.316 1.185-.263 1.975.131 2.106 1.316.264 1.449 1.054 2.765.659 4.345-.132.526-.527.921-.527 1.711.132-.658.395-1.053.658-1.579 1.053-3.028 1.448-3.16 4.081-1.712.527.263.922.263 1.317 0 1.316-.922 2.633-.263 3.16.79 1.185 2.106 3.423 3.423 4.871 5.661-.132-2.238.921-3.423 2.633-4.476 2.238-1.448 3.818-1.317 5.134 1.053.395.658.658 1.317 1.053 1.975.659 1.053 1.449 1.58 2.502.526 1.185-1.053 2.501-.263 3.949-.395-1.843-.789-2.764-2.501-4.213-3.686-1.843-1.448-2.106-3.291-.658-5.134 3.423-4.74 3.028-11.191-1.053-15.14-.79-.79-1.711-.527-2.501-.395-1.712.395-2.765-.132-3.292-1.712-.79-2.369-3.291-2.106-5.002-2.896-2.37-1.053-2.897-1.843-1.58-4.081.79-1.185.395-2.633.921-3.818-2.106.132-4.081-1.58-4.213-3.686 0-.922.264-1.712 1.185-1.975 1.58-.658 1.712-1.712 1.448-3.16-.394-1.711-.789-3.423.79-4.871.659-.526.132-1.58 0-2.896-.921 1.975-1.974 3.291-3.817 3.686-1.449.395-2.765 0-3.16-1.185-.658-2.369-2.765-3.818-3.423-6.187-3.16 1.448-6.714-.659-6.451-4.213.132-1.448-.79-2.107-1.317-3.028-1.184-2.37-1.184-2.765 1.054-4.081.79-.527 1.316-1.054 1.579-2.107.659-2.765-.131-5.793 1.185-8.557v-.263c-1.843-3.292-.263-7.241-1.974-10.401-1.58 1.58-3.16 1.975-5.53.922-1.053-.395-1.843-.922-3.028-.527-.79.263-1.448-.395-1.843-.922-1.711-1.974-3.555-4.212-3.818-6.582-.131-3.028-1.711-2.37-3.291-2.37-1.317.132-2.106-.79-3.16-1.185-.921-.395-1.843-1.185-2.764-.395-.922.79-1.449 1.843-1.185 3.16.131.658.79 1.58 0 2.106-.79.659-1.712.132-2.633-.263-2.107-.79-2.897-2.633-3.423-4.608-1.317.659-2.765 1.712-4.213.132-1.843-2.107.263-3.423 1.185-4.871-1.053-.395-1.712.263-2.37.658-1.448.79-2.896.922-3.818-.658-.395-.658-.79-.527-1.448-.395-2.238.263-3.291-.527-3.16-2.765.132-1.975-.79-2.633-2.369-2.633-2.37-.132-4.082-1.448-5.266-3.291-1.712-2.633-3.687-4.608-7.241-3.818-1.185.263-2.37-.132-3.292-.79-1.711-1.053-3.159-.395-4.081 1.053-1.185 1.975-2.896 2.238-4.739 1.448-1.448-.526-1.843 0-2.107 1.185-.395 1.448-1.448 1.975-2.896 1.58-2.106-.79-4.476.395-6.451-1.185-.527-.395-.79.395-1.185.658-3.291 2.239-5.398 1.975-8.031-.789-.658-.79-1.448-1.317-2.896-.79 1.712 1.053 3.16 1.974 2.765 4.213-.395 2.369-1.975 3.291-4.081 2.369-2.897-1.316-3.16-1.185-3.818 1.712-.527 2.501-2.765 3.028-4.608 3.423-2.107.395-3.95 1.711-6.188 1.843-1.711.131-2.369 2.106-3.028 3.686-.921 2.633-3.028 4.476-4.344 6.846-.79 1.448-2.897 1.711-4.74 1.58-3.949 0-7.635.921-11.453 2.106-.922.263-1.975.658-2.897.527-4.739-.658-9.347.79-14.086 1.185-3.292.263-5.661 1.974-6.978 4.871-1.185 2.633-3.028 4.476-5.529 5.792-2.633 1.449-5.398 1.054-8.163.922-.921-.132-1.185-1.053-1.711-1.712-1.185-2.238-2.502-4.344-5.398-5.002-1.843-.395-2.765-1.975-3.291-3.818-.527-2.107-1.843-3.028-3.95-3.028-.79 0-1.711-.132-2.501-.263-.658-.264-1.317 0-1.843.526-2.765 2.765-6.188 3.028-9.743 2.37-1.974-.395-3.817-.527-5.397-1.975-1.317-1.053-3.16-.658-4.74-.132-2.238.922-3.95.659-5.266-1.579-.526-1.054-1.58-1.317-2.764-1.185-.79.131-1.712.526-2.502.263-2.37-1.053-4.476-1.185-6.45.79-.527.527-1.58.132-2.37-.263-3.029-1.58-6.188-2.897-8.163-5.925-.526-.921-1.448-1.316-2.501-1.185-1.054.132-1.054 1.185-1.317 1.844-1.053 3.159-2.633 4.344-5.793 4.081-.79-.132-.79.263-1.053.658-.921 1.448-2.764 1.843-4.344 1.053-2.37-1.185-2.896-2.238-2.238-4.213.395-1.053.79-1.974-.264-2.633-1.184-.79-2.106-2.369-3.95-1.316-1.316.658-2.5.527-3.817.132-1.58-.527-2.765-1.185-2.896-3.16-.132-1.843-.922-3.555-2.502-4.74-.921-.658-1.975-1.053-3.028-.658-1.843.79-2.633-.263-3.423-1.58-1.316-2.501-2.238-5.134-4.344-7.24-.79-.922-1.185-1.712-2.502-1.054-.921.264-1.448-.263-1.711-1.185Z" fill="#000"/></svg>