<svg width="0" height="0" class="hidden">
  <symbol fill="#FFC149" xmlns="http://www.w3.org/2000/svg" viewBox="0 0 18 18" id="mail">
    <path d="M10.5043 10.769C10.0565 11.0676 9.53631 11.2254 9 11.2254C8.46373 11.2254 7.94356 11.0676 7.49574 10.769L0.119848 5.85161C0.0789258 5.82433 0.0390586 5.79589 0 5.76664V13.8243C0 14.7482 0.749707 15.4814 1.65702 15.4814H16.3429C17.2668 15.4814 18 14.7317 18 13.8243V5.7666C17.9608 5.79592 17.9209 5.82443 17.8799 5.85175L10.5043 10.769Z" fill="#FFC149"></path>
    <path d="M0.704883 4.97394L8.08077 9.89138C8.35998 10.0775 8.67997 10.1706 8.99996 10.1706C9.31999 10.1706 9.64002 10.0775 9.91923 9.89138L17.2951 4.97394C17.7365 4.67986 18 4.18767 18 3.65646C18 2.74306 17.2569 2 16.3435 2H1.65646C0.743098 2.00004 0 2.7431 0 3.65734C0 4.18767 0.263531 4.67986 0.704883 4.97394Z" fill="#FFC149"></path>
  </symbol>
  <symbol fill="#FFC149" xmlns="http://www.w3.org/2000/svg" viewBox="0 0 733 486" id="map">
    <path d="M0.0359844 252.794C0.0359844 250.82 0.0359844 248.845 0.0359844 246.87C-0.358971 241.472 2.53737 237.786 6.75022 234.758C7.80343 233.968 7.93508 232.915 8.19839 231.73C9.5149 225.543 10.3048 219.092 15.3076 214.484C16.0975 213.694 16.2291 212.772 16.4924 211.851C17.019 208.823 19.2571 207.901 21.4952 210.008C22.8117 211.193 23.9966 211.719 25.7081 211.456C26.7613 211.193 27.6828 211.851 28.8677 212.377C28.8677 210.139 27.4195 209.349 26.103 208.559C22.6801 206.321 21.7585 205.005 23.2067 201.187C24.9181 196.711 23.7333 192.498 22.5484 188.285C22.4168 187.89 22.2851 187.495 22.0218 187.232C19.5204 184.994 19.9154 182.887 21.6269 180.254C24.7865 175.647 28.2094 171.302 31.3691 166.826C36.1085 160.112 40.9796 153.529 46.1141 147.341C49.0104 143.787 52.565 140.496 56.3829 137.599C58.8843 135.756 60.9907 133.386 62.5705 130.622C63.2288 129.437 64.1503 128.779 65.3352 128.252C67.5733 127.33 69.8114 126.804 72.1811 126.935C74.5508 127.067 75.8673 125.882 76.6572 123.776C78.1054 119.826 79.2903 115.877 77.3155 111.664C76.5256 109.952 75.3407 108.373 74.2875 106.924C73.1026 105.345 72.7077 103.765 73.4976 102.053C74.4192 100.342 75.8673 99.2886 78.1054 99.5519C74.4192 97.5771 73.7609 93.3643 70.8646 90.8629C71.2595 88.3615 68.8898 86.7817 68.7581 84.5436C68.6265 82.4372 67.4416 80.989 65.9935 79.8042C64.8086 78.8826 63.887 77.6977 63.6237 76.1179C63.4921 75.328 62.9655 74.8014 62.3072 74.4064C60.0691 72.9583 59.2792 71.3784 60.3324 69.0087C61.649 66.1124 61.1223 63.4794 59.9375 60.8463C59.5425 59.7931 59.2792 58.8715 59.8058 57.8183C60.3324 56.5018 60.2008 55.0536 59.8058 53.7371C59.5425 52.5523 58.226 51.499 59.2792 50.3142C60.3324 49.1293 61.649 48.3394 63.2288 47.8128C66.915 46.3646 70.0747 48.2078 73.366 49.3926C73.6293 49.5243 73.8926 49.7876 74.1559 50.0509C75.604 51.894 76.2623 52.1573 77.7105 50.3142C79.8169 47.5495 82.5816 45.9697 85.4779 44.3899C86.6628 43.7316 87.1894 42.81 86.9261 41.4935C86.3995 38.7288 88.1109 36.7541 89.2958 34.6476C89.9541 33.4628 91.2706 33.1995 92.5871 33.1995C95.2201 33.0678 97.7215 32.8045 100.223 32.0146C100.618 31.8829 101.013 31.7513 101.408 31.7513C105.752 33.0678 109.965 30.5664 114.441 31.3563C115.626 31.6196 116.548 30.5664 117.601 30.0398C120.366 28.46 123.262 27.2751 126.553 27.5384C127.343 27.5384 128.133 27.8017 128.923 28.1967C131.556 29.9082 134.321 30.9614 137.612 29.5132C139.323 28.855 141.167 30.0398 143.01 30.3031C144.326 30.4348 145.379 30.6981 146.564 29.3816C147.881 27.9334 149.724 28.46 151.04 29.5132C152.225 30.3031 153.41 30.9614 154.727 30.3031C157.491 28.9866 159.861 30.1715 161.836 31.6196C165.127 34.121 168.813 34.2527 172.631 33.3311C173.816 33.0678 174.343 33.3311 174.606 34.516C174.869 35.8325 175.528 36.7541 176.581 37.544C177.371 38.0706 178.029 38.0706 178.819 37.6756C182.11 35.8325 185.928 36.3591 188.561 39.1238C191.063 41.6252 193.564 41.8885 196.724 40.7036C199.752 39.6504 202.911 40.177 206.071 40.4403C207.256 40.572 207.387 41.6252 207.387 42.5467C207.519 44.7848 206.992 47.0229 209.494 48.4711C210.284 48.9977 209.889 49.9192 209.757 50.8408C212.785 50.1825 215.681 49.6559 218.446 49.261C221.474 48.866 224.897 50.0509 227.662 51.894C228.847 52.6839 228.452 54.2637 227.925 55.5802C227.662 56.3702 226.74 57.0284 227.003 58.3449C228.452 56.8968 229.505 55.4486 229.242 53.3422C228.847 50.3142 231.085 48.6027 233.718 49.9192C235.429 50.8408 237.536 51.1041 238.852 52.6839C239.379 53.3422 239.905 52.8156 240.432 52.6839C241.485 52.1573 242.275 51.3674 242.933 50.3142C243.46 49.5243 243.986 48.7344 244.776 48.0761C248.199 45.1798 248.989 45.4431 250.306 49.6559C250.701 51.1041 251.886 52.1573 252.807 53.3422C253.334 54.1321 253.992 53.6055 254.519 53.2105C256.362 51.499 258.205 52.1573 260.443 52.4206C264.393 52.9472 265.709 55.1853 265.972 58.6082C265.972 59.0032 266.104 59.3981 266.631 59.6614C267.552 59.3981 267.684 58.4766 267.947 57.6867C269.659 53.8688 272.555 51.894 276.768 52.1573C277.953 52.1573 278.611 51.7623 279.269 50.8408C279.927 50.0509 280.454 49.261 281.376 48.7344C283.614 47.2862 285.588 47.8128 286.642 50.1825C287.168 51.499 287.826 52.8156 289.011 53.6055C290.196 54.527 290.196 55.8436 290.065 57.0284C289.67 59.7931 291.908 61.3729 292.698 63.611C293.093 64.6642 294.146 63.4793 294.936 63.611C296.91 64.006 297.7 62.9527 298.095 61.2413C298.49 59.9248 299.149 59.2665 300.86 59.1348C302.571 59.0032 304.02 57.2917 305.731 56.6335C308.496 55.5802 309.286 55.8436 309.812 58.8715C310.076 60.8463 311.129 60.7147 312.314 60.0564C315.078 58.4766 318.106 57.95 321.266 57.8183C321.529 57.8183 321.793 57.8183 322.056 57.8183C326.532 55.9752 329.033 59.1348 331.93 61.5046C332.061 61.6362 332.193 61.8995 332.456 62.0312C334.694 63.0844 334.958 64.7959 334.431 67.0339C333.905 68.7454 334.694 69.9303 336.669 70.0619C337.722 70.1936 338.381 70.7202 339.171 71.5101C339.961 72.4317 340.882 72.8266 341.277 71.1151C341.409 70.3252 342.067 69.9303 342.462 69.272C343.12 67.9555 343.384 66.7706 342.199 65.5858C341.409 64.9275 340.75 64.006 340.882 62.9527C341.145 60.583 340.356 58.6082 339.302 56.5018C338.776 55.4486 338.249 54.2637 337.986 52.9472C337.196 49.3926 338.512 46.4963 341.145 44.2582C341.409 43.9949 342.199 43.7316 342.067 43.4683C341.145 41.0986 343.384 39.6504 343.91 37.9389C344.7 35.7008 346.675 33.7261 348.255 31.7513C350.493 29.2499 353.257 27.1435 354.047 23.5889C354.837 19.9026 355.627 19.5077 359.445 19.6393C359.708 19.6393 359.972 19.6393 360.235 19.5077C363.263 18.3228 365.896 18.3228 368.397 20.6926C369.319 21.6141 369.977 21.2192 370.372 20.1659C371.03 18.4545 372.61 17.5329 373.927 16.4797C374.848 15.6898 376.033 15.5581 377.218 16.0847C381.431 17.7962 385.907 17.6646 390.383 17.9279C393.806 18.0595 397.229 18.1912 399.467 21.3508C400.257 22.5357 401.837 22.6673 403.153 21.8774C404.47 21.0875 405.918 20.5609 407.498 20.0343C410.131 18.9811 411.842 16.2164 411.447 13.3201C411.447 13.0568 411.184 12.7935 411.316 12.5302C412.501 10.0288 412.632 7.26409 412.764 4.63105C412.896 3.18288 414.475 3.05123 415.792 3.31454C419.873 3.70949 423.954 4.2361 427.246 7.26409C428.562 8.5806 430.274 7.79069 431.722 7.39574C432.643 7.13243 433.697 6.60583 434.618 7.13243C436.988 8.44895 438.568 7.13243 440.016 5.55261C440.937 4.63105 441.727 3.84114 443.044 3.57784C444.229 3.31454 444.887 2.39297 445.545 1.33976C446.072 0.549851 446.862 -0.371711 447.783 0.154896C450.943 2.39297 454.234 0.813154 457.525 0.944806C458.974 0.944806 460.553 1.20811 461.343 2.26132C462.66 3.97279 463.976 3.44619 465.161 2.65628C467.136 1.33976 469.374 1.33976 471.612 1.07646C472.402 0.944806 473.455 0.944806 473.719 1.47141C475.035 4.10445 478.326 4.89436 479.116 7.92234C479.38 8.84391 479.775 9.63382 480.565 10.1604C482.934 11.6086 483.856 14.2416 485.567 16.2164C486.357 17.138 486.226 18.1912 485.831 19.2444C484.777 22.404 485.831 24.6421 488.069 27.1435C490.833 30.3031 493.993 32.8045 496.889 35.7008C498.864 37.6756 498.864 40.7036 498.996 43.3366C499.127 44.9165 497.548 45.9697 495.968 46.1013C492.808 46.3646 489.912 47.6811 487.015 47.8128C488.464 49.261 489.648 50.9724 490.965 52.6839C491.36 53.2105 491.492 54.0004 492.018 54.3954C494.388 56.6335 494.125 58.8715 492.413 61.2413C491.228 62.8211 491.36 64.006 493.203 65.1908C495.573 66.7706 495.573 68.0872 493.861 70.3252C493.73 70.5885 493.466 70.7202 493.335 70.8518C492.808 71.6418 491.755 72.3 492.413 73.2216C493.071 74.0115 493.861 72.9583 494.52 72.5633C495.441 71.9051 496.363 72.1684 497.416 72.4317C499.786 73.2216 502.024 73.4849 504.525 73.0899C506.763 72.695 507.948 73.6165 508.606 75.9863C509.001 77.3028 509.66 77.6977 510.976 77.5661C513.214 77.3028 515.321 76.6445 517.295 75.4596C520.06 73.7482 523.088 74.4064 525.984 74.5381C527.433 74.6697 528.222 75.9863 527.696 77.5661C526.906 80.1991 529.012 82.0422 529.276 84.412C529.407 85.3335 530.461 84.9386 530.987 84.6753C533.225 83.622 535.068 84.6753 536.78 85.7285C538.886 86.9134 539.018 88.8881 537.306 90.7312C535.99 92.0478 535.727 93.2326 537.175 94.6808C538.886 96.3923 538.096 99.0253 539.018 101C539.281 101.527 539.018 102.317 539.544 102.58C541.914 104.028 541.519 106.134 541.124 108.373C540.993 109.294 541.388 109.952 541.651 110.742C542.177 112.585 541.519 113.902 539.676 114.165C538.623 114.297 538.755 114.955 538.886 115.482C539.413 118.773 539.544 122.196 543.757 123.249C545.205 123.644 545.469 125.092 545.469 126.54C545.469 128.252 545.995 129.568 547.839 129.832C549.55 130.095 550.472 129.305 551.13 127.594C552.051 125.092 554.553 124.829 556.791 124.829C558.371 124.829 559.95 124.697 561.53 124.434C565.085 123.776 567.981 124.829 569.956 127.857C571.141 129.7 573.116 131.017 574.037 133.123C574.564 134.308 575.749 133.65 576.275 132.991C577.855 131.28 579.303 131.412 580.883 132.991C581.541 133.65 582.463 134.045 583.384 134.176C585.359 134.571 586.807 135.493 586.807 137.863C587.334 135.624 589.177 135.229 590.625 134.308C594.18 132.202 597.734 130.358 602.211 130.358C606.16 130.358 610.373 129.568 613.138 126.146C613.664 125.487 614.454 125.224 615.376 125.224C616.824 125.092 618.272 124.697 619.72 124.171C621.827 123.381 622.748 124.171 622.485 126.409C621.958 130.885 622.222 131.412 626.566 132.728C628.014 133.255 628.804 133.913 628.541 135.624C627.883 139.442 628.804 142.734 631.569 145.63C633.149 147.341 635.387 147.868 637.23 148.921C638.678 149.843 640.126 150.633 640.785 152.213C641.443 153.792 642.891 154.714 644.076 155.899C645.261 157.084 646.446 156.162 647.499 155.636C648.552 155.109 648.42 154.187 648.157 153.266C648.025 152.739 647.894 152.344 647.762 151.818C647.236 148.263 647.894 147.605 651.448 147.605C651.58 147.605 651.843 147.605 651.975 147.605C656.056 147.473 656.056 147.473 657.504 151.028C657.636 151.423 657.768 151.949 658.163 152.081C659.874 152.739 661.586 153.134 663.297 154.187C664.35 154.846 666.852 154.582 668.431 153.002C669.616 151.818 671.986 153.266 672.249 155.241C672.644 158.532 674.224 160.243 677.515 160.638C679.227 160.902 680.412 161.428 680.675 163.14C680.807 164.193 681.333 164.193 682.255 163.93C684.23 163.271 686.073 162.745 687.521 160.902C689.364 158.664 690.549 158.795 692.129 161.297C692.787 162.481 693.314 163.535 693.577 164.983C693.972 167.353 696.078 168.932 698.316 168.011C701.871 166.431 704.504 168.932 707.664 169.064C708.585 169.064 708.585 169.986 708.585 170.775C708.585 173.935 709.638 176.436 712.93 177.49C713.72 177.753 714.246 178.411 714.904 178.938C716.221 179.991 717.801 180.123 718.986 178.938C720.302 177.621 722.014 177.226 723.725 177.095C724.515 176.963 725.437 177.095 726.227 176.831C729.386 175.778 729.518 176.963 730.703 179.596C731.229 180.781 730.966 181.703 729.913 182.361C729.649 182.492 729.386 182.756 729.123 182.887C725.173 185.389 725.042 187.495 728.728 190.523C730.703 192.103 732.809 193.551 732.019 196.579C731.888 196.974 732.282 197.369 732.414 197.764C733.599 201.055 733.072 201.45 730.044 203.03C726.49 204.873 723.593 207.638 722.145 211.587C721.487 213.431 720.434 214.221 718.591 213.694C716.484 213.036 714.773 214.747 712.535 214.879C713.456 215.405 714.246 215.932 714.51 216.722C715.431 219.882 717.932 220.671 720.697 221.198C721.487 221.33 721.882 221.066 722.409 220.54C723.462 219.223 724.778 218.96 726.095 220.145C727.411 221.33 727.938 223.568 727.016 224.884C726.095 226.201 725.042 227.517 723.857 228.702C722.804 229.755 721.619 230.019 720.302 229.36C719.512 228.965 718.591 228.702 717.801 228.307C717.274 228.044 716.484 227.781 716.221 228.439C715.563 230.414 713.588 231.73 713.456 233.837C713.325 235.548 712.93 237.128 712.271 238.444C712.535 238.971 712.798 238.971 713.193 238.971C717.669 239.234 718.854 240.288 718.986 244.632C719.117 246.607 719.512 248.318 720.697 249.635C722.277 251.215 722.277 252.926 722.277 254.769C722.277 255.033 722.277 255.427 722.145 255.691C722.014 256.086 721.619 256.086 721.355 256.349C721.75 256.217 722.014 256.086 722.409 255.954C722.672 255.822 723.067 255.822 723.33 255.822C724.383 256.744 724.647 258.06 725.173 259.377C725.963 261.878 725.042 262.8 723.067 264.643C720.96 266.618 719.117 269.383 719.776 272.674C720.039 274.122 719.907 275.175 718.196 275.439C717.011 275.57 717.406 276.36 717.406 277.15C717.143 280.441 716.879 283.733 714.773 286.497C713.72 287.814 712.666 288.472 710.955 288.077C708.98 287.682 707.005 287.287 705.162 288.209C704.636 288.472 703.846 288.34 703.187 288.077C703.056 287.945 702.924 287.945 702.792 287.814C701.081 286.761 698.843 288.472 697 286.102C695.683 284.523 692.787 286.497 690.681 286.892C689.364 287.156 688.179 287.419 686.994 286.892C685.283 286.102 683.44 285.971 681.465 285.707C677.515 285.181 677.647 285.839 676.331 289.657C675.804 291.105 675.541 292.685 675.277 294.265C675.014 295.976 674.092 296.898 672.381 296.634C671.328 296.503 670.538 296.898 669.748 297.556C668.431 298.741 666.852 299.136 665.008 299.267C661.717 299.531 658.689 300.716 656.583 303.612C655.925 304.534 655.793 305.455 656.056 306.377C656.319 307.562 656.451 308.615 656.451 309.8C656.451 313.354 656.451 313.354 654.081 315.592C654.081 315.724 654.213 315.856 654.476 315.856C655.661 316.119 657.373 315.461 657.636 317.172C657.899 318.884 657.899 320.858 656.188 321.912C654.608 322.965 653.95 324.281 653.818 326.256C653.555 328.889 652.238 331.127 650 332.707C649.21 333.365 648.025 333.892 647.236 333.102C645.919 331.654 644.339 332.049 642.891 331.785C639.468 331.127 636.177 331.522 632.885 332.444C632.096 332.707 631.174 332.97 630.384 332.575C626.303 330.996 624.065 333.497 621.827 336.262C620.247 338.236 619.062 340.474 617.614 342.318C616.692 343.502 615.639 344.819 613.928 345.082C612.216 345.346 611.69 344.687 612.348 342.976C612.611 342.318 613.138 341.791 612.479 341.264C611.821 340.738 611.163 341.001 610.636 341.396C607.872 343.107 604.844 344.292 601.947 345.741C599.709 346.794 598.656 348.9 597.734 351.138C596.813 353.376 596.023 355.614 594.443 357.458C593.917 357.984 593.522 358.642 592.732 358.774C591.679 359.037 590.362 358.906 589.704 357.984C588.914 356.931 590.23 356.536 590.757 355.878C591.547 354.824 593.39 354.298 592.6 352.455C591.942 350.743 589.835 350.085 587.729 350.348C580.883 351.533 575.485 354.824 572.589 361.539C571.536 363.777 570.219 366.015 567.586 366.805C566.533 367.068 565.348 367.331 564.822 366.147C564.163 364.83 564.822 364.04 566.006 363.382C567.455 362.592 568.903 361.802 569.693 360.222C570.088 359.432 570.351 358.642 569.824 357.852C569.298 357.063 568.508 356.931 567.586 357.063C566.665 357.194 565.743 357.458 564.822 357.326C558.371 356.536 553.5 359.301 549.287 363.908C547.312 366.015 545.337 367.858 542.572 368.911C539.544 370.096 537.965 372.861 536.253 375.494C534.278 378.39 532.435 381.55 530.724 384.709C528.617 388.791 524.668 389.844 520.85 391.16C519.665 391.555 519.27 390.765 519.007 389.712C518.744 388.001 520.06 385.763 522.035 384.709C522.43 384.446 522.825 384.183 523.22 384.183C527.433 384.051 529.012 380.76 530.724 377.864C530.987 377.337 531.25 376.81 531.382 376.284C531.514 375.362 530.855 374.704 530.197 374.177C529.539 373.651 529.144 374.441 528.749 374.704C528.222 375.099 527.696 375.494 527.432 376.152C525.984 379.18 523.483 380.76 520.323 381.418C519.533 381.55 518.612 381.681 517.954 382.076C516.374 382.866 515.321 384.051 515.584 386.026C516.9 398.138 521.508 409.065 528.617 418.939C531.25 422.625 533.752 426.311 536.78 429.603C537.57 430.524 538.36 431.314 539.281 431.972C540.993 433.552 542.572 433.289 544.679 432.762C549.023 431.709 550.603 428.418 552.71 425.258C553.631 423.942 554.553 423.152 556.133 423.415C557.581 423.678 557.844 424.6 557.844 425.916C557.844 427.496 559.161 428.154 560.477 428.418C561.925 428.681 562.715 427.891 562.978 426.706C563.373 425.39 564.295 424.6 565.48 424.205C569.429 422.757 573.247 422.362 577.328 423.547C579.83 424.337 582.331 425.258 584.964 425.258C586.676 425.258 588.651 427.76 588.782 429.603C588.782 431.051 587.202 432.894 585.623 433.289C581.41 434.342 578.908 439.345 580.488 443.426C581.936 447.112 580.751 449.219 576.934 450.009C575.09 450.404 573.247 450.667 571.404 451.457C569.561 452.247 567.455 451.457 565.48 451.062C563.9 450.799 562.584 450.799 561.135 451.588C559.424 452.51 557.317 452.378 555.343 452.905C554.026 453.168 553.105 451.983 552.446 450.93C551.13 448.56 548.892 447.244 546.39 446.322C544.284 445.532 542.309 445.927 540.466 446.981C539.281 447.639 537.965 448.429 539.544 450.009C539.808 450.272 540.071 450.799 539.808 450.93C538.096 451.852 538.228 453.827 537.306 455.275C536.78 456.196 535.727 455.933 534.805 455.538C533.489 454.88 532.962 455.538 531.909 456.328C529.539 458.171 527.959 460.146 526.643 462.91C525.721 464.885 523.483 465.017 521.771 463.7C520.587 462.779 519.402 462.516 518.085 463.042C516.9 463.437 515.847 463.174 514.662 463.305C509.265 463.832 504.657 466.07 500.312 469.23C498.074 470.81 497.548 473.706 496.363 476.076C495.704 477.392 494.915 478.05 493.598 478.972C491.228 480.552 488.2 481.21 486.884 484.106C486.489 485.028 485.567 485.555 484.382 485.555C478.59 485.686 472.797 485.686 467.004 485.555C465.951 485.555 465.03 485.16 464.635 484.106C464.108 482.527 462.923 482 461.475 481.868C458.052 481.605 456.472 478.972 454.366 476.866C452.654 475.022 454.629 473.048 456.736 472.258C460.027 471.073 460.553 470.678 460.29 467.387C460.027 464.095 460.159 461.199 462.397 458.303C463.713 456.591 462.923 453.958 462.528 451.72C462.002 448.692 460.685 445.927 458.184 443.821C456.472 442.373 454.892 442.373 453.181 443.558C451.47 444.874 450.153 444.348 448.442 443.426C444.624 441.583 442.649 438.028 439.753 435.395C437.646 433.552 435.54 431.972 432.512 432.236C431.064 432.367 429.747 432.631 428.562 433.552C426.851 435 425.008 435.264 423.033 434.342C422.374 434.079 421.585 433.947 420.926 433.684C417.635 432.762 416.582 429.603 418.557 426.706C420.268 424.073 422.769 422.23 425.534 420.914C428.43 419.465 431.064 417.622 433.433 415.384C436.198 412.751 439.621 411.303 442.912 409.46C443.965 408.933 444.755 408.275 445.019 406.959C445.677 404.589 446.467 404.325 448.442 405.774C449.363 406.564 450.153 406.564 451.206 406.037C451.601 405.774 452.259 405.642 452.523 405.379C455.551 402.219 459.632 401.298 463.318 399.586C464.24 399.059 465.293 399.454 466.083 399.059C466.215 398.928 466.215 398.928 466.215 398.928C466.083 398.928 465.951 399.059 465.82 399.059C463.713 398.928 463.186 398.006 463.318 395.768C463.45 393.135 463.581 390.37 463.45 387.606C463.845 389.581 461.607 391.029 462.265 393.003C462.265 393.135 462.133 393.267 462.002 393.398C460.422 394.452 458.579 393.135 456.999 394.188C456.472 394.583 455.814 393.53 455.287 392.872C454.497 391.687 453.708 390.502 451.864 391.16C451.601 391.292 451.206 391.16 450.943 391.029C450.021 390.634 449.89 389.712 449.626 388.791C448.968 389.844 448.178 389.844 447.257 389.186C445.282 387.737 443.439 387.737 441.464 388.922C440.147 389.712 438.568 389.581 437.119 389.449C433.96 389.317 430.669 388.791 427.509 389.712C426.851 389.844 426.061 389.712 425.534 389.449C425.139 389.449 425.402 389.975 425.402 389.581C425.402 389.449 425.402 389.449 425.666 389.449C426.982 389.712 428.299 389.712 429.615 390.239C430.274 390.502 431.064 390.502 431.853 390.239C436.066 388.132 439.621 390.897 443.439 392.082C444.097 392.214 444.624 392.74 444.492 393.53C444.36 394.188 443.702 394.32 443.175 394.583C440.279 395.9 437.251 395.11 434.355 394.583C425.929 393.003 417.635 391.292 409.604 388.264C408.419 387.869 407.235 387.342 407.103 385.894C406.971 385.368 406.708 384.973 406.181 384.709C403.548 383.656 401.442 381.681 398.809 380.365C395.913 379.048 393.411 380.102 390.778 379.97C390.12 379.838 389.725 379.312 389.33 378.917C387.882 376.547 388.277 375.099 390.515 373.914C391.7 373.256 392.885 373.124 394.069 373.124C395.254 373.124 396.439 372.992 397.492 372.466C398.282 371.939 399.335 371.544 399.204 370.623C399.072 369.569 397.887 370.096 397.097 369.964C395.123 369.569 393.411 368.516 391.436 367.99C390.646 367.726 389.462 367.068 389.593 368.78C389.725 370.886 388.013 370.754 387.355 370.096C384.196 367.2 379.588 365.357 378.798 360.354C378.535 358.642 377.086 358.906 376.296 359.301C373.137 361.275 369.845 359.959 366.686 359.564C365.633 359.432 364.579 359.564 363.526 359.827C359.445 360.617 355.89 362.987 351.678 363.513C350.624 363.645 350.624 364.435 350.888 365.225C352.073 369.043 351.151 372.203 348.386 374.967C347.86 375.494 347.465 376.284 347.07 377.074C343.91 383.919 339.171 389.581 334.694 395.637C327.717 404.852 318.106 410.776 309.681 418.281C309.154 418.807 308.496 419.202 307.969 419.729C305.863 421.835 305.863 422.23 308.759 423.02C310.076 423.415 310.866 424.205 310.602 425.521C310.076 429.734 310.471 434.079 309.681 438.292C309.286 440.003 308.101 440.53 306.653 440.925C305.336 441.188 304.546 440.398 303.888 439.213C303.493 438.423 303.361 437.502 303.493 436.58C304.02 433.815 302.703 431.972 300.728 430.393C296.91 427.365 290.46 427.233 286.247 429.866C284.14 431.182 281.639 431.709 279.532 433.157C278.743 433.684 278.084 434.079 277.558 435C276.373 437.238 275.715 437.37 273.74 436.185C271.37 434.869 271.37 434.869 270.975 437.502C270.712 439.213 268.342 440.398 265.841 439.871C262.154 439.082 258.6 438.028 255.177 436.58C251.227 434.869 248.594 432.236 247.409 428.154C247.278 427.496 246.883 426.97 246.225 426.575C244.25 425.653 244.645 424.337 245.566 422.888C246.225 421.835 246.883 421.045 247.673 420.124C248.858 418.939 250.174 418.412 251.754 419.202C252.807 419.729 253.992 419.597 255.177 419.597C255.967 419.729 256.23 420.124 256.362 420.914C256.493 420.255 256.098 419.729 255.967 419.202C255.967 418.807 255.967 418.281 256.23 418.017C257.81 416.701 257.81 415.384 256.098 414.199C255.44 413.804 255.703 413.015 255.835 412.356C256.493 409.723 259.258 408.407 260.18 405.905C260.18 405.774 260.443 405.642 260.575 405.774C263.076 406.432 264.261 404.72 265.841 403.272C266.894 402.219 267.42 401.561 267.026 400.244C266.762 399.323 266.762 398.401 266.762 397.48C266.762 395.505 267.684 394.452 269.527 393.925C271.238 393.53 272.95 393.267 274.661 392.74C275.846 392.345 276.373 391.687 275.583 390.502C274.135 388.791 274.925 387.342 276.109 385.894C276.504 385.368 276.899 384.841 277.426 384.314C278.216 383.393 278.348 382.603 277.163 381.945C275.056 380.497 274.266 378.785 275.583 376.284C276.636 374.441 275.451 372.597 274.793 370.754C273.476 366.541 273.476 366.278 277.294 364.172C278.611 363.513 279.927 362.724 281.507 362.724C282.429 362.724 283.087 362.329 283.745 361.67C284.535 360.749 285.72 360.617 286.905 360.354C288.09 360.091 288.88 360.485 289.011 361.67C289.275 363.119 290.065 364.435 289.67 366.015C289.538 366.541 289.143 366.936 289.143 367.726C289.275 367.068 289.538 366.673 289.801 366.147C290.854 363.119 291.249 362.987 293.882 364.435C294.409 364.698 294.804 364.698 295.199 364.435C296.515 363.513 297.832 364.172 298.359 365.225C299.544 367.331 301.782 368.648 303.23 370.886C303.098 368.648 304.151 367.463 305.863 366.41C308.101 364.962 309.681 365.093 310.997 367.463C311.392 368.121 311.655 368.78 312.05 369.438C312.709 370.491 313.499 371.018 314.552 369.964C315.737 368.911 317.053 369.701 318.501 369.569C316.658 368.78 315.737 367.068 314.288 365.883C312.445 364.435 312.182 362.592 313.63 360.749C317.053 356.009 316.658 349.558 312.577 345.609C311.787 344.819 310.866 345.082 310.076 345.214C308.364 345.609 307.311 345.082 306.784 343.502C305.994 341.133 303.493 341.396 301.782 340.606C299.412 339.553 298.885 338.763 300.202 336.525C300.992 335.34 300.597 333.892 301.123 332.707C299.017 332.839 297.042 331.127 296.91 329.021C296.91 328.099 297.174 327.309 298.095 327.046C299.675 326.388 299.807 325.334 299.543 323.886C299.149 322.175 298.754 320.463 300.333 319.015C300.992 318.489 300.465 317.435 300.333 316.119C299.412 318.094 298.359 319.41 296.516 319.805C295.067 320.2 293.751 319.805 293.356 318.62C292.698 316.251 290.591 314.802 289.933 312.433C286.773 313.881 283.219 311.774 283.482 308.22C283.614 306.772 282.692 306.113 282.165 305.192C280.981 302.822 280.981 302.427 283.219 301.111C284.009 300.584 284.535 300.057 284.798 299.004C285.457 296.239 284.667 293.211 285.983 290.447C285.983 290.315 285.983 290.184 285.983 290.184C284.14 286.892 285.72 282.943 284.009 279.783C282.429 281.363 280.849 281.758 278.479 280.705C277.426 280.31 276.636 279.783 275.451 280.178C274.661 280.441 274.003 279.783 273.608 279.256C271.897 277.282 270.053 275.044 269.79 272.674C269.659 269.646 268.079 270.304 266.499 270.304C265.182 270.436 264.393 269.514 263.339 269.119C262.418 268.724 261.496 267.934 260.575 268.724C259.653 269.514 259.126 270.567 259.39 271.884C259.521 272.542 260.18 273.464 259.39 273.99C258.6 274.649 257.678 274.122 256.757 273.727C254.65 272.937 253.86 271.094 253.334 269.119C252.017 269.778 250.569 270.831 249.121 269.251C247.278 267.144 249.384 265.828 250.306 264.38C249.253 263.985 248.594 264.643 247.936 265.038C246.488 265.828 245.04 265.96 244.118 264.38C243.723 263.722 243.328 263.853 242.67 263.985C240.432 264.248 239.379 263.458 239.51 261.22C239.642 259.245 238.72 258.587 237.141 258.587C234.771 258.455 233.059 257.139 231.875 255.296C230.163 252.663 228.188 250.688 224.634 251.478C223.449 251.741 222.264 251.346 221.342 250.688C219.631 249.635 218.183 250.293 217.261 251.741C216.076 253.716 214.365 253.979 212.522 253.189C211.074 252.663 210.679 253.189 210.415 254.374C210.02 255.822 208.967 256.349 207.519 255.954C205.413 255.164 203.043 256.349 201.068 254.769C200.541 254.374 200.278 255.164 199.883 255.427C196.592 257.666 194.485 257.402 191.852 254.638C191.194 253.848 190.404 253.321 188.956 253.848C190.668 254.901 192.116 255.822 191.721 258.061C191.326 260.43 189.746 261.352 187.64 260.43C184.743 259.114 184.48 259.245 183.822 262.142C183.295 264.643 181.057 265.17 179.214 265.565C177.107 265.96 175.264 267.276 173.026 267.408C171.315 267.539 170.657 269.514 169.998 271.094C169.077 273.727 166.97 275.57 165.654 277.94C164.864 279.388 162.757 279.651 160.914 279.52C156.965 279.52 153.279 280.441 149.461 281.626C148.539 281.889 147.486 282.284 146.564 282.153C141.825 281.495 137.217 282.943 132.478 283.338C129.186 283.601 126.817 285.312 125.5 288.209C124.315 290.842 122.472 292.685 119.971 294.001C117.338 295.45 114.573 295.055 111.808 294.923C110.887 294.791 110.623 293.87 110.097 293.211C108.912 290.973 107.595 288.867 104.699 288.209C102.856 287.814 101.934 286.234 101.408 284.391C100.881 282.284 99.5646 281.363 97.4582 281.363C96.6683 281.363 95.7467 281.231 94.9568 281.1C94.2986 280.836 93.6403 281.1 93.1137 281.626C90.349 284.391 86.9261 284.654 83.3715 283.996C81.3967 283.601 79.5536 283.469 77.9738 282.021C76.6572 280.968 74.8141 281.363 73.2343 281.889C70.9962 282.811 69.2847 282.548 67.9682 280.31C67.4416 279.256 66.3884 278.993 65.2036 279.125C64.4136 279.256 63.4921 279.651 62.7022 279.388C60.3324 278.335 58.226 278.203 56.2512 280.178C55.7246 280.705 54.6714 280.31 53.8815 279.915C50.8535 278.335 47.6939 277.018 45.7191 273.99C45.1925 273.069 44.2709 272.674 43.2177 272.805C42.1645 272.937 42.1645 273.99 41.9012 274.649C40.848 277.808 39.2682 278.993 36.1085 278.73C35.3186 278.598 35.3186 278.993 35.0553 279.388C34.1338 280.836 32.2906 281.231 30.7108 280.441C28.3411 279.256 27.8145 278.203 28.4727 276.228C28.8677 275.175 29.2626 274.254 28.2094 273.595C27.0246 272.805 26.103 271.226 24.2599 272.279C22.9434 272.937 21.7585 272.806 20.442 272.411C18.8622 271.884 17.6773 271.226 17.5457 269.251C17.414 267.408 16.6241 265.696 15.0443 264.511C14.1227 263.853 13.0695 263.458 12.0163 263.853C10.1732 264.643 9.38325 263.59 8.59334 262.273C7.27683 259.772 6.35526 257.139 4.24884 255.033C3.45893 254.111 3.06397 253.321 1.74746 253.979C0.825894 254.243 0.299288 253.716 0.0359844 252.794Z" fill="black"></path>
  </symbol>
  <symbol fill="#FFC149" xmlns="http://www.w3.org/2000/svg" viewBox="0 0 18 18" id="phone">
    <path d="M14.8766 10.1894C14.0195 10.1894 13.1779 10.0553 12.3804 9.79178C11.9896 9.65849 11.5092 9.78077 11.2707 10.0257L9.6965 11.2141C7.87092 10.2396 6.7464 9.11541 5.78521 7.30354L6.93857 5.77039C7.23822 5.47114 7.3457 5.03401 7.21693 4.62385C6.95224 3.82213 6.81779 2.98093 6.81779 2.12343C6.81782 1.50396 6.31386 1 5.69443 1H3.12339C2.50396 1 2 1.50396 2 2.12339C2 9.22365 7.77638 15 14.8766 15C15.4961 15 16 14.496 16 13.8766V11.3127C16 10.6934 15.496 10.1894 14.8766 10.1894Z" fill="#FFC149"></path>
  </symbol>
  <symbol fill="#FFC149" xmlns="http://www.w3.org/2000/svg" viewBox="0 0 101 55" id="ufuture_logo">
    <rect x="47.332" width="1.59976" height="5.48489" rx="0.79988" fill="white"></rect>
    <rect x="37.5049" y="11.6829" width="1.59976" height="5.48489" rx="0.79988" transform="rotate(-90 37.5049 11.6829)" fill="white"></rect>
    <rect width="1.59976" height="5.48489" rx="0.79988" transform="matrix(-2.3597e-08 -1 -1 2.3597e-08 58.8242 11.6829)" fill="white"></rect>
    <rect x="52.8169" y="0.914062" width="1.59976" height="5.48489" rx="0.79988" transform="rotate(30 52.8169 0.914062)" fill="white"></rect>
    <rect x="38.4194" y="6.198" width="1.59976" height="5.48489" rx="0.79988" transform="rotate(-60 38.4194 6.198)" fill="white"></rect>
    <rect width="1.59976" height="5.48489" rx="0.79988" transform="matrix(-0.5 -0.866025 -0.866025 0.5 57.9097 6.198)" fill="white"></rect>
    <rect width="1.59976" height="5.48489" rx="0.79988" transform="matrix(0.866025 -0.5 -0.5 -0.866025 52.8169 20.6335)" fill="white"></rect>
    <rect width="1.59976" height="5.48489" rx="0.79988" transform="matrix(-0.866025 0.5 0.5 0.866025 43.4614 0.914062)" fill="white"></rect>
    <rect width="1.59976" height="5.48489" rx="0.79988" transform="matrix(0.5 0.866025 0.866025 -0.5 38.4194 15.5535)" fill="white"></rect>
    <rect x="57.9102" y="15.5535" width="1.59976" height="5.48489" rx="0.79988" transform="rotate(120 57.9102 15.5535)" fill="white"></rect>
    <path d="M88.358 39.2151C90.9018 41.4347 94.6925 41.2601 97.2362 38.9657C98.3834 37.9433 98.7575 37.9183 100.129 39.0156C98.8323 41.0855 96.9619 42.3824 94.6176 42.8562C88.8568 43.9784 84.0187 40.3374 83.3453 34.5017C82.9463 31.0352 85.2407 27.07 88.5825 25.4739C92.024 23.8279 96.2885 24.5262 98.8822 27.045C99.6054 27.7433 99.381 28.1673 98.7824 28.7408C95.6152 31.8582 92.4978 35.0254 89.3556 38.1677C89.0314 38.4919 88.7321 38.8411 88.358 39.2151ZM96.089 27.9927C93.8196 26.0475 89.7795 26.646 87.3355 29.2646C85.1409 31.6088 85.1908 36.1477 86.737 37.2699C89.8793 34.1775 92.9966 31.0851 96.089 27.9927Z" fill="white"></path>
    <path d="M26.5854 31.983C26.5854 33.4045 26.5604 34.801 26.5854 36.2225C26.6103 38.7414 28.5555 40.5868 31.1741 40.5619C33.7179 40.5619 35.6132 38.7164 35.6132 36.1976C35.6381 33.2798 35.6132 30.3869 35.6132 27.469C35.6132 26.671 35.6132 25.9976 36.7604 25.9727C37.8328 25.9478 38.0073 26.5214 38.0073 27.3693C37.9325 30.736 38.0323 34.1027 37.7579 37.4445C37.5335 40.5619 34.6655 42.8313 31.3237 42.8812C27.7824 42.9311 24.715 40.8113 24.4406 37.669C24.1414 34.1277 24.2411 30.5365 24.1912 26.9703C24.1663 26.1223 24.715 25.9727 25.4382 25.9727C26.2362 25.9727 26.5604 26.3218 26.5604 27.095C26.5604 28.7409 26.5854 30.3619 26.5854 31.983Z" fill="white"></path>
    <path d="M68.7318 32.0827C68.7318 33.579 68.7567 35.0753 68.7318 36.5717C68.657 39.9633 66.1631 42.557 62.7216 42.8812C59.1803 43.2054 56.0878 41.1354 55.3646 37.9183C55.1901 37.1951 55.1402 36.447 55.1152 35.6988C55.1152 33.4806 55.115 31.3095 55.1651 29.09C55.2649 28.0675 54.9885 26.0226 56.2375 26.0226C57.3881 26.0532 57.4345 26.0475 57.4345 29.1399C57.4345 31.4343 57.4096 33.7037 57.4345 35.9981C57.4595 38.0929 58.5318 39.6641 60.3524 40.3374C62.2477 41.0357 64.3925 40.487 65.5895 38.8161C66.1132 38.043 66.4624 36.9956 66.5123 36.0729C66.6369 33.18 66.5621 30.2621 66.5372 27.3443C66.5372 26.5463 66.6369 25.9976 67.6594 25.9727C68.7318 25.9477 68.7567 26.5463 68.7318 27.3194C68.7318 28.9404 68.7567 30.5115 68.7318 32.0827Z" fill="white"></path>
    <path d="M17.8563 35.4744C17.8563 37.3448 17.8563 39.2152 17.8563 41.0856C17.8563 41.8837 17.956 42.6817 16.7091 42.7067C15.512 42.7067 15.4871 41.9834 15.4871 41.1355C15.4871 37.3947 15.4871 33.6539 15.4622 29.938C15.4622 29.5822 15.4622 28.1101 15.4622 28.1101C15.4622 28.1101 15.0934 28.1101 14.3649 28.1101C13.9658 28.1101 13.9658 27.653 13.9658 27.0817C13.9658 26.5103 13.9656 26.0974 14.3649 26.0974C14.7659 26.0974 15.5654 26.0974 15.5654 26.0974C15.5654 26.0974 15.5498 25.0965 15.5654 24.6759C15.6152 23.5288 15.4871 22.3317 15.7115 21.2094C16.2353 18.4163 19.0533 16.7454 21.7467 17.5933C22.0959 17.6931 22.5198 18.2417 22.5198 18.5659C22.4949 19.1645 22.2704 19.7381 21.3976 19.7381C18.6044 19.6882 17.8507 20.4613 17.8507 23.2295C17.8507 23.4789 17.8507 23.7283 17.8507 23.9776C17.8507 25.2616 17.8507 26.0974 17.8507 26.0974C17.8507 26.0974 18.9617 26.1185 19.8763 26.0974C20.8217 26.0974 21.1233 26.0532 21.1233 27.1199C21.1233 28.2243 20.853 28.1101 20.0218 28.1101C19.7103 28.1172 19.5648 28.1172 19.1282 28.1101C18.7719 28.1125 17.8507 28.1101 17.8507 28.1101C17.8507 28.1101 17.8398 28.8468 17.8563 29.4891C17.9062 31.4842 17.8563 33.4793 17.8563 35.4744Z" fill="white"></path>
    <path d="M75.989 27.9928C76.9865 27.2945 77.7846 26.6212 78.7073 26.1723C80.6276 25.1997 81.1014 25.5488 80.9019 27.8182C77.0364 29.0901 75.8393 32.0578 75.989 35.8735C76.0638 37.7937 75.989 39.6891 76.0139 41.6094C76.0139 42.3077 75.8144 42.7067 75.0413 42.6817C74.3181 42.6817 73.8442 42.5321 73.8442 41.6593C73.8442 36.7962 73.8442 31.9331 73.8442 27.0701C73.8442 26.2222 74.2931 26.0476 75.0164 26.0476C75.7645 26.0476 76.0887 26.3468 76.0139 27.095C75.964 27.3195 75.989 27.6187 75.989 27.9928Z" fill="white"></path>
    <path d="M49.0463 42.3938V27.8817V27.196H47.1038V32.7952V34.9663C47.1037 40.794 46.6696 44.2221 48.1322 46.5074C49.5948 48.7928 51.9411 49.2118 52.9315 49.1356C49.8234 48.6785 49.0463 44.4506 49.0463 42.3938Z" fill="white"></path>
    <path d="M34.8769 49.8209C47.1036 41.7078 47.9035 23.082 47.1036 16.1116H48.9319C49.5033 20.9109 49.178 34.1744 43.3328 43.3076C36.0196 54.7344 26.4211 55.6486 21.0504 54.7344C15.6798 53.8203 4.36704 47.6498 0.48198 27.6528C-1.22745 18.8541 1.9675 8.2271 4.48138 2.51367H6.42397C-0.432144 15.7688 0.482054 36.5657 11.9089 47.6498C21.0504 56.517 31.0299 52.7919 34.8769 49.8209Z" fill="white"></path>
    <rect x="43.4614" y="20.6335" width="1.59976" height="5.48489" rx="0.79988" transform="rotate(-150 43.4614 20.6335)" fill="white"></rect>
    <path d="M44.1975 28.9737C43.7562 29.0706 43.3055 28.8554 43.1034 28.4513C42.8147 27.8738 43.1493 27.1792 43.7808 27.045L51.0361 25.5032C51.4214 25.4213 51.8177 25.5827 52.0363 25.9104C52.4118 26.4736 52.1034 27.2382 51.4423 27.3834L44.1975 28.9737Z" fill="white"></path>
  </symbol>
  <symbol xmlns="http://www.w3.org/2000/svg" viewBox="0 0 14 12" id="heart_d">
    <path d="M11.9552 0.48909C11.3884 0.178732 10.7383 0.000244141 10.0446 0.000244141C8.82083 0.000244141 7.72487 0.554512 7.00119 1.42364C6.2741 0.554512 5.17917 0.000244141 3.9537 0.000244141C3.26174 0.000244141 2.6128 0.178732 2.0447 0.48909C0.82583 1.15998 0 2.44985 0 3.93219C0 4.35656 0.0694817 4.76355 0.195328 5.14431C0.874006 8.17631 7.00119 12.0002 7.00119 12.0002C7.00119 12.0002 13.1243 8.17639 13.804 5.14431C13.9298 4.76355 14 4.35601 14 3.93219C14 2.4504 13.1742 1.16093 11.9552 0.48909Z"></path>
  </symbol>
  <symbol fill="#FFC149" xmlns="http://www.w3.org/2000/svg" viewBox="0 0 18 18" id="instagram">
    <path d="M9.00123 4.37769C6.44903 4.37769 4.38281 6.44615 4.38281 8.99611C4.38281 11.5483 6.45128 13.6145 9.00123 13.6145C11.5534 13.6145 13.6197 11.5461 13.6197 8.99611C13.6197 6.4439 11.5512 4.37769 9.00123 4.37769ZM9.00123 11.9938C7.34451 11.9938 6.00353 10.6521 6.00353 8.99611C6.00353 7.34013 7.34526 5.99841 9.00123 5.99841C10.6572 5.99841 11.9989 7.34013 11.9989 8.99611C11.9997 10.6521 10.658 11.9938 9.00123 11.9938Z" fill="#FFC149"></path>
    <path d="M12.7109 0.056539C11.055 -0.0207096 6.9533 -0.0169597 5.29583 0.056539C3.83935 0.124788 2.55463 0.476532 1.51889 1.51226C-0.212076 3.24323 0.00917029 5.57569 0.00917029 8.99638C0.00917029 12.4973 -0.185826 14.7758 1.51889 16.4805C3.25661 18.2175 5.62282 17.9902 9.00301 17.9902C12.471 17.9902 13.6679 17.9925 14.8942 17.5177C16.5614 16.8705 17.8199 15.3803 17.9429 12.7036C18.0209 11.0468 18.0164 6.94592 17.9429 5.28845C17.7944 2.12875 16.0986 0.212536 12.7109 0.056539ZM15.3322 15.3353C14.1974 16.47 12.6232 16.3688 8.98126 16.3688C5.23133 16.3688 3.72761 16.4243 2.63037 15.324C1.36665 14.0663 1.59539 12.0466 1.59539 8.98438C1.59539 4.8407 1.17015 1.85651 5.32883 1.64351C6.28431 1.60976 6.56556 1.59851 8.97076 1.59851L9.00451 1.62101C13.0012 1.62101 16.1369 1.20252 16.3251 5.36045C16.3679 6.30918 16.3776 6.59417 16.3776 8.99563C16.3769 12.7021 16.4474 14.2148 15.3322 15.3353Z" fill="#FFC149"></path>
    <path d="M13.8038 5.27492C14.3999 5.27492 14.8831 4.79173 14.8831 4.19569C14.8831 3.59964 14.3999 3.11646 13.8038 3.11646C13.2078 3.11646 12.7246 3.59964 12.7246 4.19569C12.7246 4.79173 13.2078 5.27492 13.8038 5.27492Z" fill="#FFC149"></path>
  </symbol>

  <svg width="61" height="61" viewBox="0 0 61 61" fill="#FFC149" id="to-down" xmlns="http://www.w3.org/2000/svg">
  <circle opacity="0.3" cx="30.5" cy="30.5" r="30" stroke="white"/>
  <path d="M31.7822 21.8975C31.7822 21.6213 31.5584 21.3975 31.2822 21.3975C31.0061 21.3975 30.7822 21.6213 30.7822 21.8975L31.7822 21.8975ZM30.9287 39.4561C31.1239 39.6514 31.4405 39.6514 31.6358 39.4561L34.8178 36.2742C35.013 36.0789 35.013 35.7623 34.8178 35.5671C34.6225 35.3718 34.3059 35.3718 34.1107 35.5671L31.2822 38.3955L28.4538 35.5671C28.2585 35.3718 27.942 35.3718 27.7467 35.5671C27.5514 35.7623 27.5514 36.0789 27.7467 36.2742L30.9287 39.4561ZM30.7822 21.8975L30.7822 39.1026L31.7822 39.1026L31.7822 21.8975L30.7822 21.8975Z" fill="white"/>
  </svg>
<svg width="27" height="27" viewBox="0 0 27 27" fill="#FFC149" id="store" xmlns="http://www.w3.org/2000/svg">
<g clip-path="url(#clip0_503_1780)">
<path d="M13.0869 6.17827C13.0869 5.35692 12.6887 4.57749 11.9897 4.1034C11.3589 3.66987 10.9613 2.97631 10.9045 2.21987C11.4516 2.16011 11.8791 1.69367 11.8791 1.13162V0.0971912C11.8791 -0.506714 11.3858 -1 10.7819 -1H7.90576C7.30185 -1 6.80851 -0.506714 6.80851 0.0971912V1.13162C6.80851 1.69367 7.23604 2.16011 7.78313 2.21987C7.75923 2.56668 7.66056 2.89854 7.50208 3.20049C7.31375 3.55625 7.0387 3.86721 6.69483 4.1034C6.01021 4.56978 5.60059 5.34713 5.60059 6.17827V9.73901H13.0868V6.17827H13.0869Z" fill="white"/>
<path d="M14.7047 9.73864H21.575C21.7095 9.38882 21.7963 9.05996 21.8292 8.80587C22.0569 7.07968 20.2622 5.74064 18.6451 6.53667C18.7258 6.17196 18.8843 5.81019 19.2041 5.66967C19.4314 5.571 19.533 5.3079 19.4343 5.08066C19.3357 4.85341 19.0726 4.7488 18.8453 4.84747C18.1039 5.16737 17.8258 5.94171 17.7302 6.58747C16.1727 5.70563 14.2091 6.98572 14.4504 8.80582C14.4835 9.05996 14.5701 9.38588 14.7047 9.73864Z" fill="white"/>
<path d="M27.9518 17.7667L24.5167 10.9113C24.4969 10.8814 24.466 10.7798 24.3612 10.7199C24.3513 10.7002 24.2233 10.6362 24.1041 10.6362H2.89511C2.82148 10.6362 2.72253 10.66 2.64697 10.7139C2.54207 10.7663 2.5035 10.8814 2.48254 10.9113L-0.952616 17.7667C-1.06324 17.9879 -0.973573 18.257 -0.752334 18.3677C-0.686574 18.4006 -0.620814 18.4155 -0.552052 18.4155C-0.387623 18.4155 -0.229142 18.3259 -0.15143 18.1674L2.44663 12.9862V26.0572C2.44663 27.1275 3.31964 28.0005 4.38993 28.0005H22.6092C23.6796 28.0005 24.5525 27.1275 24.5525 26.0572V12.9802L27.1506 18.1673C27.2283 18.3258 27.3868 18.4155 27.5512 18.4155C27.62 18.4155 27.6887 18.4005 27.7515 18.3676C27.9728 18.257 28.0624 17.9879 27.9518 17.7667ZM21.7121 24.2634C21.7121 24.7587 21.3106 25.1603 20.8152 25.1603H16.8628C16.3675 25.1603 15.9659 24.7587 15.9659 24.2634V21.519C15.9659 21.0236 16.3675 20.6221 16.8628 20.6221H20.8152C21.3106 20.6221 21.7121 21.0237 21.7121 21.519V24.2634Z" fill="white"/>
</g>
<defs>
<clipPath id="clip0_503_1780">
<rect width="27" height="27" fill="white"/>
</clipPath>
</defs>
</svg>
<svg width="27" height="27" viewBox="0 0 27 27" fill="#FFC149" id="people" xmlns="http://www.w3.org/2000/svg">
<path d="M13.5 11.4961C15.8461 11.4961 17.748 9.59418 17.748 7.24805C17.748 4.90192 15.8461 3 13.5 3C11.1539 3 9.25195 4.90192 9.25195 7.24805C9.25195 9.59418 11.1539 11.4961 13.5 11.4961Z" fill="white"/>
<path d="M22.0938 11.4961C23.5769 11.4961 24.7793 10.2937 24.7793 8.81055C24.7793 7.32736 23.5769 6.125 22.0938 6.125C20.6106 6.125 19.4082 7.32736 19.4082 8.81055C19.4082 10.2937 20.6106 11.4961 22.0938 11.4961Z" fill="white"/>
<path d="M4.90625 11.4961C6.38944 11.4961 7.5918 10.2937 7.5918 8.81055C7.5918 7.32736 6.38944 6.125 4.90625 6.125C3.42306 6.125 2.2207 7.32736 2.2207 8.81055C2.2207 10.2937 3.42306 11.4961 4.90625 11.4961Z" fill="white"/>
<path d="M7.55225 13.9079C6.49512 13.0417 5.53775 13.1564 4.31543 13.1564C2.48731 13.1564 1 14.6349 1 16.4518V21.7843C1 22.5734 1.64404 23.215 2.43604 23.215C5.85528 23.215 5.44336 23.2769 5.44336 23.0675C5.44336 19.2889 4.9958 16.5179 7.55225 13.9079Z" fill="white"/>
<path d="M14.6629 13.1758C12.5279 12.9977 10.6722 13.1778 9.07155 14.499C6.39299 16.6445 6.90847 19.5334 6.90847 23.0674C6.90847 24.0024 7.66921 24.7773 8.61843 24.7773C18.9252 24.7773 19.3354 25.1098 19.9466 23.7564C20.147 23.2986 20.0921 23.4441 20.0921 19.0654C20.0921 15.5876 17.0807 13.1758 14.6629 13.1758Z" fill="white"/>
<path d="M22.6846 13.1563C21.4556 13.1563 20.5035 13.0428 19.4478 13.9077C21.9851 16.4984 21.5566 19.0803 21.5566 23.0674C21.5566 23.2781 21.2147 23.2149 24.5127 23.2149C25.333 23.2149 26 22.5503 26 21.7334V16.4517C26 14.6348 24.5127 13.1563 22.6846 13.1563Z" fill="white"/>
</svg>

<svg width="27" height="27" id="tank" viewBox="0 0 27 27" fill="#FFC149"     xmlns="http://www.w3.org/2000/svg">
<g clip-path="url(#clip0_503_1802)">
<path d="M14.5872 12.3411C14.5872 12.0472 14.5468 11.7629 14.4728 11.4926H27.0002V9.98416H13.5535C13.1217 9.58603 12.576 9.30556 11.9161 9.19224C11.9161 8.78431 11.9161 8.49931 11.9161 8.49884V8.47895C11.9161 8.46292 11.9474 8.45839 11.9471 8.44256C11.9217 7.56635 11.2328 6.87305 10.3507 6.87305H3.71403V9.51259C2.677 10.0522 2.03271 11.1162 2.03271 12.3411C2.03271 12.3532 2.04148 12.3651 2.04158 12.3773C2.23729 12.3543 2.44385 12.3411 2.64551 12.3411H14.5872Z" fill="white"/>
<path d="M23.8889 21.0851V21.0593C25.5859 20.7785 26.9057 19.31 26.9057 17.5177V17.4864C26.9057 15.4903 25.3192 13.8494 23.3232 13.8494H2.64528C0.64936 13.8494 -1 15.4903 -1 17.4863V17.5176C-1 19.31 0.319865 20.7784 2.01683 21.0592V21.085C2.01683 21.6418 2.18295 22.1634 2.44438 22.6123C2.97119 23.517 3.96637 24.1255 5.08863 24.1255H20.8799C22.0021 24.1255 22.9659 23.517 23.4927 22.6124C23.7542 22.1635 23.8889 21.6419 23.8889 21.0851ZM15.5391 22.5463C14.6926 22.5463 14.0066 21.8603 14.0066 21.0138C14.0066 20.1673 14.6926 19.4812 15.5391 19.4812C16.3856 19.4812 17.0721 20.1673 17.0721 21.0138C17.072 21.8603 16.3856 22.5463 15.5391 22.5463ZM8.8214 21.0138C8.8214 20.1673 9.50745 19.4812 10.354 19.4812C11.2005 19.4812 11.8869 20.1673 11.8869 21.0138C11.8869 21.8603 11.2006 22.5463 10.354 22.5463C9.50745 22.5463 8.8214 21.8603 8.8214 21.0138ZM3.63622 21.0138C3.63622 20.1673 4.32226 19.4812 5.16877 19.4812C6.01527 19.4812 6.7017 20.1673 6.7017 21.0138C6.7017 21.8603 6.01537 22.5463 5.16877 22.5463C4.32226 22.5463 3.63622 21.8603 3.63622 21.0138ZM20.7243 22.5463C19.8778 22.5463 19.1918 21.8603 19.1918 21.0138C19.1918 20.1673 19.8778 19.4812 20.7243 19.4812C21.5708 19.4812 22.2573 20.1673 22.2573 21.0138C22.2572 21.8603 21.5708 22.5463 20.7243 22.5463Z" fill="white"/>
</g>
<defs>
<clipPath id="clip0_503_1802">
<rect width="27" height="27" fill="white"/>
</clipPath>
</defs>
</svg>

<svg width="61" height="61" viewBox="0 0 61 61" fill="#FFC149" id="galery-btn" xmlns="http://www.w3.org/2000/svg">
<circle cx="30.5" cy="30.5" r="30" transform="rotate(90 30.5 30.5)" stroke="#1884FA"/>
<path d="M38 31.5C38.2761 31.5 38.5 31.2761 38.5 31C38.5 30.7239 38.2761 30.5 38 30.5V31.5ZM22.6464 30.6464C22.4512 30.8417 22.4512 31.1583 22.6464 31.3536L25.8284 34.5355C26.0237 34.7308 26.3403 34.7308 26.5355 34.5355C26.7308 34.3403 26.7308 34.0237 26.5355 33.8284L23.7071 31L26.5355 28.1716C26.7308 27.9763 26.7308 27.6597 26.5355 27.4645C26.3403 27.2692 26.0237 27.2692 25.8284 27.4645L22.6464 30.6464ZM38 30.5H23V31.5H38V30.5Z"/>
</svg>

<svg width="61" height="61" viewBox="0 0 61 61"  id="prev" xmlns="http://www.w3.org/2000/svg">
<circle cx="30.5" cy="30.5" r="30" transform="rotate(90 30.5 30.5)" />
<path d="M38 31.5C38.2761 31.5 38.5 31.2761 38.5 31C38.5 30.7239 38.2761 30.5 38 30.5V31.5ZM22.6464 30.6464C22.4512 30.8417 22.4512 31.1583 22.6464 31.3536L25.8284 34.5355C26.0237 34.7308 26.3403 34.7308 26.5355 34.5355C26.7308 34.3403 26.7308 34.0237 26.5355 33.8284L23.7071 31L26.5355 28.1716C26.7308 27.9763 26.7308 27.6597 26.5355 27.4645C26.3403 27.2692 26.0237 27.2692 25.8284 27.4645L22.6464 30.6464ZM38 30.5H23V31.5H38V30.5Z"/>
</svg>

<svg width="61" height="61" viewBox="0 0 61 61"  id="next" xmlns="http://www.w3.org/2000/svg">
<circle cx="30.5" cy="30.5" r="30" transform="rotate(-90 30.5 30.5)" />
<path d="M23 29.5C22.7239 29.5 22.5 29.7239 22.5 30C22.5 30.2761 22.7239 30.5 23 30.5L23 29.5ZM38.3536 30.3536C38.5488 30.1583 38.5488 29.8417 38.3536 29.6464L35.1716 26.4645C34.9763 26.2692 34.6597 26.2692 34.4645 26.4645C34.2692 26.6597 34.2692 26.9763 34.4645 27.1716L37.2929 30L34.4645 32.8284C34.2692 33.0237 34.2692 33.3403 34.4645 33.5355C34.6597 33.7308 34.9763 33.7308 35.1716 33.5355L38.3536 30.3536ZM23 30.5L38 30.5L38 29.5L23 29.5L23 30.5Z" />
</svg>

<svg width="72" height="72" viewBox="0 0 72 72" fill="#FFC149" id="nav" xmlns="http://www.w3.org/2000/svg">
<circle cx="36" cy="36" r="36" fill="url(#paint0_linear_503_1972)"/>
<g clip-path="url(#clip0_503_1972)">
<path d="M36.5903 22.4263C30.9333 22.4263 26.3311 27.0286 26.3311 32.6855C26.3311 39.7059 35.5121 50.0124 35.903 50.4477C36.2702 50.8566 36.9112 50.8559 37.2777 50.4477C37.6686 50.0124 46.8496 39.7059 46.8496 32.6855C46.8495 27.0286 42.2473 22.4263 36.5903 22.4263ZM36.5903 37.8472C33.7442 37.8472 31.4287 35.5317 31.4287 32.6855C31.4287 29.8393 33.7442 27.5238 36.5903 27.5238C39.4365 27.5238 41.7519 29.8394 41.7519 32.6856C41.7519 35.5317 39.4365 37.8472 36.5903 37.8472Z" fill="white"/>
</g>
<defs>
<linearGradient id="paint0_linear_503_1972" x1="1.77272e-05" y1="42.7317" x2="72" y2="42.7317" gradientUnits="userSpaceOnUse">
<stop stop-color="#F28D1C"/>
<stop offset="1" stop-color="#FBC658"/>
</linearGradient>
<clipPath id="clip0_503_1972">
<rect width="28.3279" height="28.3279" fill="white" transform="translate(22.4263 22.4263)"/>
</clipPath>
</defs>
</svg>

<svg width="72" height="72" viewBox="0 0 72 72" fill="#FFC149" id="mail_b" xmlns="http://www.w3.org/2000/svg">
<circle cx="36" cy="36" r="36" fill="url(#paint0_linear_503_1991)"/>
<path d="M37.0705 38.3393C36.5133 38.7107 35.866 38.9071 35.1987 38.9071C34.5314 38.9071 33.8842 38.7107 33.3269 38.3393L24.1491 32.2205C24.0982 32.1866 24.0486 32.1512 24 32.1148V42.141C24 43.2905 24.9329 44.2028 26.0618 44.2028H44.3355C45.4851 44.2028 46.3974 43.27 46.3974 42.141V32.1147C46.3487 32.1512 46.299 32.1867 46.2479 32.2207L37.0705 38.3393Z" fill="white"/>
<path d="M24.8771 31.1292L34.0549 37.248C34.4023 37.4796 34.8005 37.5954 35.1987 37.5954C35.5969 37.5954 35.9951 37.4795 36.3425 37.248L45.5203 31.1292C46.0695 30.7633 46.3974 30.1508 46.3974 29.4898C46.3974 28.3533 45.4728 27.4287 44.3363 27.4287H26.0611C24.9246 27.4288 24 28.3533 24 29.4909C24 30.1508 24.3279 30.7633 24.8771 31.1292Z" fill="white"/>
<defs>
<linearGradient id="paint0_linear_503_1991" x1="1.77272e-05" y1="42.7317" x2="72" y2="42.7317" gradientUnits="userSpaceOnUse">
<stop stop-color="#F28D1C"/>
<stop offset="1" stop-color="#FBC658"/>
</linearGradient>
</defs>
</svg>

<svg width="72" height="72" id="inst_b" viewBox="0 0 72 72" fill="#FFC149" xmlns="http://www.w3.org/2000/svg">
<circle cx="36" cy="36" r="36" fill="url(#paint0_linear_503_2002)"/>
<path d="M36.0031 29.8374C32.6002 29.8374 29.8452 32.5954 29.8452 35.9953C29.8452 39.3982 32.6032 42.1532 36.0031 42.1532C39.406 42.1532 42.161 39.3952 42.161 35.9953C42.161 32.5924 39.403 29.8374 36.0031 29.8374ZM36.0031 39.9922C33.7941 39.9922 32.0062 38.2033 32.0062 35.9953C32.0062 33.7873 33.7951 31.9984 36.0031 31.9984C38.2111 31.9984 40 33.7873 40 35.9953C40.001 38.2033 38.2121 39.9922 36.0031 39.9922Z" fill="white"/>
<path d="M40.9479 24.0754C38.74 23.9724 33.2711 23.9774 31.0611 24.0754C29.1191 24.1664 27.4062 24.6354 26.0252 26.0164C23.7172 28.3243 24.0122 31.4343 24.0122 35.9952C24.0122 40.6631 23.7522 43.701 26.0252 45.974C28.3422 48.29 31.4971 47.987 36.004 47.987C40.6279 47.987 42.2239 47.99 43.8589 47.357C46.0818 46.494 47.7598 44.507 47.9238 40.9381C48.0278 38.7291 48.0218 33.2612 47.9238 31.0513C47.7258 26.8383 45.4649 24.2834 40.9479 24.0754ZM44.4429 44.447C42.9299 45.96 40.8309 45.825 35.975 45.825C30.9751 45.825 28.9701 45.899 27.5072 44.432C25.8222 42.7551 26.1272 40.0621 26.1272 35.9792C26.1272 30.4543 25.5602 26.4753 31.1051 26.1913C32.3791 26.1463 32.7541 26.1313 35.961 26.1313L36.006 26.1613C41.3349 26.1613 45.5159 25.6034 45.7668 31.1473C45.8238 32.4122 45.8368 32.7922 45.8368 35.9942C45.8358 40.9361 45.9298 42.9531 44.4429 44.447Z" fill="white"/>
<path d="M42.4063 31.0322C43.201 31.0322 43.8452 30.388 43.8452 29.5933C43.8452 28.7985 43.201 28.1543 42.4063 28.1543C41.6115 28.1543 40.9673 28.7985 40.9673 29.5933C40.9673 30.388 41.6115 31.0322 42.4063 31.0322Z" fill="white"/>
<defs>
<linearGradient id="paint0_linear_503_2002" x1="1.77272e-05" y1="42.7317" x2="72" y2="42.7317" gradientUnits="userSpaceOnUse">
<stop stop-color="#F28D1C"/>
<stop offset="1" stop-color="#FBC658"/>
</linearGradient>
</defs>
</svg>

<svg width="72" height="72" viewBox="0 0 72 72" fill="#FFC149" id="phone_b" xmlns="http://www.w3.org/2000/svg">
<circle cx="36" cy="36" r="36" fill="url(#paint0_linear_503_1981)"/>
<path d="M46.0827 40.2502C44.7268 40.2502 43.3956 40.0381 42.1341 39.6212C41.5159 39.4104 40.756 39.6038 40.3787 39.9913L37.8887 41.871C35.001 40.3295 33.2222 38.5513 31.7018 35.6853L33.5262 33.2602C34.0002 32.7868 34.1702 32.0954 33.9665 31.4466C33.5478 30.1784 33.3351 28.8478 33.3351 27.4914C33.3352 26.5115 32.538 25.7144 31.5582 25.7144H27.4913C26.5115 25.7144 25.7144 26.5115 25.7144 27.4913C25.7144 38.7225 34.8515 47.8596 46.0827 47.8596C47.0625 47.8596 47.8596 47.0624 47.8596 46.0826V42.0271C47.8596 41.0473 47.0624 40.2502 46.0827 40.2502Z" fill="white"/>
<defs>
<linearGradient id="paint0_linear_503_1981" x1="1.77272e-05" y1="42.7317" x2="72" y2="42.7317" gradientUnits="userSpaceOnUse">
<stop stop-color="#F28D1C"/>
<stop offset="1" stop-color="#FBC658"/>
</linearGradient>
</defs>
</svg>

<svg width="18" height="18" viewBox="0 0 18 18" fill="none" id="phone-f" xmlns="http://www.w3.org/2000/svg">
<path opacity="0.7" d="M14.8766 10.1894C14.0195 10.1894 13.1779 10.0553 12.3804 9.79178C11.9896 9.65849 11.5092 9.78077 11.2707 10.0257L9.6965 11.2141C7.87092 10.2396 6.7464 9.11541 5.78521 7.30354L6.93857 5.77039C7.23822 5.47114 7.3457 5.03401 7.21693 4.62385C6.95224 3.82213 6.81779 2.98093 6.81779 2.12343C6.81782 1.50396 6.31386 1 5.69443 1H3.12339C2.50396 1 2 1.50396 2 2.12339C2 9.22365 7.77638 15 14.8766 15C15.4961 15 16 14.496 16 13.8766V11.3127C16 10.6934 15.496 10.1894 14.8766 10.1894Z" fill="white"/>
</svg>

<svg width="18" height="18" viewBox="0 0 18 18" fill="none" id="mail_f" xmlns="http://www.w3.org/2000/svg">
<g opacity="0.7">
<path d="M10.5043 10.769C10.0565 11.0676 9.53631 11.2254 9 11.2254C8.46373 11.2254 7.94356 11.0676 7.49574 10.769L0.119848 5.85161C0.0789258 5.82433 0.0390586 5.79589 0 5.76664V13.8243C0 14.7482 0.749707 15.4814 1.65702 15.4814H16.3429C17.2668 15.4814 18 14.7317 18 13.8243V5.7666C17.9608 5.79592 17.9209 5.82443 17.8799 5.85175L10.5043 10.769Z" fill="white"/>
<path d="M0.704883 4.97394L8.08077 9.89138C8.35998 10.0775 8.67997 10.1706 8.99996 10.1706C9.31999 10.1706 9.64002 10.0775 9.91923 9.89138L17.2951 4.97394C17.7365 4.67986 18 4.18767 18 3.65646C18 2.74306 17.2569 2 16.3435 2H1.65646C0.743098 2.00004 0 2.7431 0 3.65734C0 4.18767 0.263531 4.67986 0.704883 4.97394Z" fill="white"/>
</g>
</svg>

<svg width="18" height="18" viewBox="0 0 18 18" fill="none" id="instagram_f" xmlns="http://www.w3.org/2000/svg">
<g opacity="0.7">
<path d="M9.00221 4.37744C6.45 4.37744 4.38379 6.44591 4.38379 8.99586C4.38379 11.5481 6.45225 13.6143 9.00221 13.6143C11.5544 13.6143 13.6206 11.5458 13.6206 8.99586C13.6206 6.44366 11.5522 4.37744 9.00221 4.37744ZM9.00221 11.9936C7.34549 11.9936 6.00451 10.6518 6.00451 8.99586C6.00451 7.33989 7.34624 5.99816 9.00221 5.99816C10.6582 5.99816 11.9999 7.33989 11.9999 8.99586C12.0007 10.6518 10.6589 11.9936 9.00221 11.9936Z" fill="white"/>
<path d="M12.7109 0.056539C11.055 -0.0207096 6.9533 -0.0169597 5.29583 0.056539C3.83935 0.124788 2.55463 0.476532 1.51889 1.51226C-0.212076 3.24323 0.00917029 5.57569 0.00917029 8.99638C0.00917029 12.4973 -0.185826 14.7758 1.51889 16.4805C3.25661 18.2175 5.62282 17.9902 9.00301 17.9902C12.471 17.9902 13.6679 17.9925 14.8942 17.5177C16.5614 16.8705 17.8199 15.3803 17.9429 12.7036C18.0209 11.0468 18.0164 6.94592 17.9429 5.28845C17.7944 2.12875 16.0986 0.212536 12.7109 0.056539ZM15.3322 15.3353C14.1974 16.47 12.6232 16.3688 8.98126 16.3688C5.23133 16.3688 3.72761 16.4243 2.63037 15.324C1.36665 14.0663 1.59539 12.0466 1.59539 8.98438C1.59539 4.8407 1.17015 1.85651 5.32883 1.64351C6.28431 1.60976 6.56556 1.59851 8.97076 1.59851L9.00451 1.62101C13.0012 1.62101 16.1369 1.20252 16.3251 5.36045C16.3679 6.30918 16.3776 6.59417 16.3776 8.99563C16.3769 12.7021 16.4474 14.2148 15.3322 15.3353Z" fill="white"/>
<path d="M13.8043 5.27467C14.4004 5.27467 14.8836 4.79148 14.8836 4.19544C14.8836 3.5994 14.4004 3.11621 13.8043 3.11621C13.2083 3.11621 12.7251 3.5994 12.7251 4.19544C12.7251 4.79148 13.2083 5.27467 13.8043 5.27467Z" fill="white"/>
</g>
</svg>













